<?xml version="1.0" encoding="utf-8"?>
<!-- Generator: Adobe Illustrator 20.1.0, SVG Export Plug-In . SVG Version: 6.00 Build 0)  -->
<svg version="1.1" id="Layer_1" xmlns="http://www.w3.org/2000/svg" xmlns:xlink="http://www.w3.org/1999/xlink" x="0px" y="0px"
	 viewBox="0 0 183.7 146.9" style="enable-background:new 0 0 183.7 146.9;" xml:space="preserve">
<style type="text/css">
	.st0{fill:#333333;}
</style>
<path class="st0" d="M3.1,0h17.2c1.7,0,3.1,1.4,3.1,3.1v17.2c0,1.7-1.4,3.1-3.1,3.1H3.1C1.4,23.4,0,22,0,20.3V3.1C0,1.4,1.4,0,3.1,0
	z"/>
<path class="st0" d="M38.7,0h123.1c1.7,0,3.1,1.4,3.1,3.1v17.2c0,1.7-1.4,3.1-3.1,3.1H38.7c-1.7,0-3.1-1.4-3.1-3.1V3.1
	C35.6,1.4,37,0,38.7,0z"/>
<path class="st0" d="M3.1,35.2h17.2c1.7,0,3.1,1.4,3.1,3.1v17.2c0,1.7-1.4,3.1-3.1,3.1H3.1c-1.7,0-3.1-1.4-3.1-3.1V38.3
	C0,36.6,1.4,35.2,3.1,35.2z"/>
<path class="st0" d="M38.7,35.2h123.1c1.7,0,3.1,1.4,3.1,3.1v17.2c0,1.7-1.4,3.1-3.1,3.1H38.7c-1.7,0-3.1-1.4-3.1-3.1V38.3
	C35.6,36.6,37,35.2,38.7,35.2z"/>
<path class="st0" d="M3.1,70.4h17.2c1.7,0,3.1,1.4,3.1,3.1v17.2c0,1.7-1.4,3.1-3.1,3.1H3.1c-1.7,0-3.1-1.4-3.1-3.1V73.5
	C0,71.8,1.4,70.4,3.1,70.4z"/>
<path class="st0" d="M3.1,105.6h17.2c1.7,0,3.1,1.4,3.1,3.1v17.2c0,1.7-1.4,3.1-3.1,3.1H3.1c-1.7,0-3.1-1.4-3.1-3.1v-17.2
	C0,106.9,1.4,105.6,3.1,105.6z"/>
<path class="st0" d="M95.7,109.2c0-1.2,0.1-2.5,0.2-3.7H38.7c-1.7,0-3.1,1.4-3.1,3.1v17.2c0,1.7,1.4,3.1,3.1,3.1h61
	C97,122.7,95.6,116,95.7,109.2z M114,70.4H38.7c-1.7,0-3.1,1.4-3.1,3.1v17.2c0,1.7,1.4,3.1,3.1,3.1h59.4
	C101.1,84.6,106.6,76.5,114,70.4z"/>
<path class="st0" d="M146,71.6c-20.8,0-37.7,16.9-37.7,37.7c0,20.8,16.9,37.7,37.7,37.7s37.7-16.9,37.7-37.7
	C183.7,88.4,166.9,71.6,146,71.6z M165.3,115.2H152v13.2h-12v-13.2h-13.2v-12H140V90h12v13.2h13.2l0,0V115.2z"/>
</svg>
