<svg id="Layer_1" data-name="Layer 1" xmlns="http://www.w3.org/2000/svg" viewBox="0 0 183.71 146.91"><defs><style>.cls-1{fill:#333;}.cls-2{fill:#fff;}</style></defs><rect class="cls-1" width="23.39" height="23.39" rx="3.1" ry="3.1"/><rect class="cls-1" x="35.6" width="129.34" height="23.39" rx="3.1" ry="3.1"/><rect class="cls-1" y="35.18" width="23.39" height="23.39" rx="3.1" ry="3.1"/><rect class="cls-1" x="35.6" y="35.18" width="129.34" height="23.39" rx="3.1" ry="3.1"/><rect class="cls-1" y="70.37" width="23.39" height="23.39" rx="3.1" ry="3.1"/><rect class="cls-1" y="105.55" width="23.39" height="23.39" rx="3.1" ry="3.1"/><path class="cls-1" d="M95.65 109.24c0-1.24.06-2.47.15-3.69H38.7a3.1 3.1 0 0 0-3.1 3.1v17.18a3.1 3.1 0 0 0 3.1 3.1h60.95a50.23 50.23 0 0 1-4-19.69zM114 70.37H38.7a3.1 3.1 0 0 0-3.1 3.1v17.18a3.1 3.1 0 0 0 3.1 3.1h59.39A50.46 50.46 0 0 1 114 70.37z"/><circle class="cls-1" cx="146.05" cy="109.24" r="37.67"/><path class="cls-2" d="M126.8 103.24h38.49v12H126.8z"/></svg>