<svg id="Layer_1" data-name="Layer 1" xmlns="http://www.w3.org/2000/svg" viewBox="0 0 200 200"><defs><style>.cls-1{fill:url(#linear-gradient);}.cls-2{fill:#fff;}</style><linearGradient id="linear-gradient" x1="16.89" y1="23.57" x2="167.86" y2="174.54" gradientUnits="userSpaceOnUse"><stop offset="0" stop-color="#4e68b1"/><stop offset="1" stop-color="#252d64"/></linearGradient></defs><title>Artboard 1</title><path class="cls-1" d="M156.9 18.18a28.48 28.48 0 0 0-16.13-4.65l-118.9 8.3A9.75 9.75 0 0 0 13 31.38V167a9.75 9.75 0 0 0 8.91 9.55l118.91 8.3a27.88 27.88 0 0 0 16.06-4.74l21.06-15.8A20.2 20.2 0 0 0 185 150V47.65c0-4.91-3.25-11.3-7.21-14.2z"/><path class="cls-2" d="M35.39 162.41a10.34 10.34 0 0 1-1.85 3.29 8 8 0 0 1-2.73 2.12 6.84 6.84 0 0 1-3.33.63 7.4 7.4 0 0 1-3.31-1 9.45 9.45 0 0 1-2.69-2.45 11.85 11.85 0 0 1-1.8-3.46 13.19 13.19 0 0 1-.66-4.14 12.56 12.56 0 0 1 .66-4.07 10.4 10.4 0 0 1 1.8-3.27 8.1 8.1 0 0 1 2.69-2.15 6.86 6.86 0 0 1 3.31-.69 7.35 7.35 0 0 1 3.33 1 9.37 9.37 0 0 1 2.73 2.41 11.8 11.8 0 0 1 1.85 3.48 13.19 13.19 0 0 1 .68 4.2 12.55 12.55 0 0 1-.68 4.1zM108.35 62.2a42.77 42.77 0 0 0-14.16-10.66 36.49 36.49 0 0 0-16.87-3.33 37.12 37.12 0 0 0-16.4 4.67 44.11 44.11 0 0 0-13.06 11.19A53.14 53.14 0 0 0 39.21 80a60.14 60.14 0 0 0 0 38.36 53.15 53.15 0 0 0 8.65 15.95 44.12 44.12 0 0 0 13.07 11.19 37.11 37.11 0 0 0 16.4 4.68 36.49 36.49 0 0 0 16.87-3.33 42.78 42.78 0 0 0 14.16-10.66 52.17 52.17 0 0 0 9.75-16.48 60 60 0 0 0 0-41 52.16 52.16 0 0 0-9.76-16.51zM99 110.13a28.25 28.25 0 0 1-5.1 8.87 23.21 23.21 0 0 1-7.51 5.83 19.78 19.78 0 0 1-18-.39 23.6 23.6 0 0 1-7.19-6 28.54 28.54 0 0 1-4.8-8.68 32.6 32.6 0 0 1 0-21.07A28.54 28.54 0 0 1 61.21 80a23.6 23.6 0 0 1 7.19-6 19.78 19.78 0 0 1 18-.39 23.21 23.21 0 0 1 7.51 5.83A28.25 28.25 0 0 1 99 88.27a32.57 32.57 0 0 1 0 21.85z"/><path class="cls-2" d="M132.66 71.33a69.59 69.59 0 0 0-13.33-22.21A57 57 0 0 0 100.07 35a49 49 0 0 0-22.75-4.14 50.1 50.1 0 0 0-21.9 6.56 59.37 59.37 0 0 0-17.27 15.07 71.34 71.34 0 0 0-11.36 21.26 80.91 80.91 0 0 0 0 50.9 71.35 71.35 0 0 0 11.36 21.26A59.37 59.37 0 0 0 55.43 161a50.1 50.1 0 0 0 21.9 6.56 49 49 0 0 0 22.75-4.14 57 57 0 0 0 19.25-14.14 69.6 69.6 0 0 0 13.33-22.21 80.73 80.73 0 0 0 0-55.74zM125 123.18a60.52 60.52 0 0 1-11.44 19.19A49.59 49.59 0 0 1 97 154.7a42.36 42.36 0 0 1-19.64 3.74 43.21 43.21 0 0 1-19-5.55 51.4 51.4 0 0 1-15.08-13 61.84 61.84 0 0 1-10-18.48 69.88 69.88 0 0 1 0-44.33 61.84 61.84 0 0 1 10-18.48 51.4 51.4 0 0 1 15.08-13 43.21 43.21 0 0 1 19-5.55A42.36 42.36 0 0 1 97 43.7 49.59 49.59 0 0 1 113.52 56 60.52 60.52 0 0 1 125 75.22a69.75 69.75 0 0 1 0 48z"/></svg>