<?xml version="1.0" encoding="utf-8"?>
<!-- Generator: Adobe Illustrator 20.1.0, SVG Export Plug-In . SVG Version: 6.00 Build 0)  -->
<svg version="1.1" id="Layer_1" xmlns="http://www.w3.org/2000/svg" xmlns:xlink="http://www.w3.org/1999/xlink" x="0px" y="0px"
	 viewBox="0 0 100 100" style="enable-background:new 0 0 100 100;" xml:space="preserve">
<style type="text/css">
	.st0{fill:#FFFFFF;}
</style>
<g>
	<path class="st0" d="M67.2,41.2c-3.4-6.5-10-10.5-17.3-10.5c-9.1,0-16.9,6.3-19,15.1l-3.9,0c-0.7,0-1.1,0.8-0.6,1.3l6,6
		c0.3,0.3,0.8,0.3,1.1,0l6-6c0.5-0.5,0.1-1.3-0.6-1.3l-4,0c1.9-6.5,7.9-11.1,14.8-11.1c5.8,0,11.1,3.2,13.7,8.3
		c0.5,1,1.7,1.4,2.7,0.9C67.3,43.4,67.7,42.2,67.2,41.2z"/>
	<path class="st0" d="M73,52.9l-6-6c-0.3-0.3-0.8-0.3-1.1,0l-6,6c-0.5,0.5-0.1,1.3,0.6,1.3l4,0c-1.9,6.5-7.9,11.1-14.8,11.1
		c-5.8,0-11.1-3.2-13.7-8.3c-0.5-1-1.7-1.4-2.7-0.9c-1,0.5-1.4,1.7-0.9,2.7c3.4,6.5,10,10.5,17.3,10.5c9.1,0,16.9-6.3,19-15.1l3.9,0
		C73.1,54.3,73.5,53.4,73,52.9z"/>
</g>
</svg>
