<?xml version="1.0" encoding="utf-8"?>
<!-- Generator: Adobe Illustrator 20.1.0, SVG Export Plug-In . SVG Version: 6.00 Build 0)  -->
<svg version="1.1" id="Layer_1" xmlns="http://www.w3.org/2000/svg" xmlns:xlink="http://www.w3.org/1999/xlink" x="0px" y="0px"
	 viewBox="0 0 92 80.8" style="enable-background:new 0 0 92 80.8;" xml:space="preserve">
<style type="text/css">
	.st0{opacity:0.2;enable-background:new    ;}
</style>
<title>Artboard 1</title>
<path class="st0" d="M0,80.8C5.4,67,15.4,57.7,28.9,52.3c1.6-0.7,4.3,0,6,1c8.1,4.9,15.9,5,24.1,0.3c1.5-0.9,4-1.3,5.5-0.7
	C77.2,58.6,87,67.4,92,80.8H0z"/>
<path class="st0" d="M70.1,29c-0.1,8.7-4.3,16.8-11.4,21.9c-7.8,5.9-17.9,5.2-25.2-1.2C19.8,37.6,21,14.4,36,3.9
	c7.2-5.1,14.7-5.2,21.8-0.1C66.1,9.7,70.1,17.9,70.1,29z"/>
</svg>
