<?xml version="1.0" encoding="utf-8"?>
<!-- Generator: Adobe Illustrator 20.1.0, SVG Export Plug-In . SVG Version: 6.00 Build 0)  -->
<svg version="1.1"
	 id="svg3652" inkscape:output_extension="org.inkscape.output.svg.inkscape" inkscape:version="0.48.1 r9760" sodipodi:docname="baseball_cap_small.svg" sodipodi:version="0.32" xmlns:cc="http://creativecommons.org/ns#" xmlns:dc="http://purl.org/dc/elements/1.1/" xmlns:inkscape="http://www.inkscape.org/namespaces/inkscape" xmlns:rdf="http://www.w3.org/1999/02/22-rdf-syntax-ns#" xmlns:sodipodi="http://sodipodi.sourceforge.net/DTD/sodipodi-0.dtd" xmlns:svg="http://www.w3.org/2000/svg"
	 xmlns="http://www.w3.org/2000/svg" xmlns:xlink="http://www.w3.org/1999/xlink" x="0px" y="0px" viewBox="0 0 365.3 237"
	 style="enable-background:new 0 0 365.3 237;" xml:space="preserve">
<style type="text/css">
	.st0{fill:#4D4BB2;stroke:#000000;stroke-miterlimit:10;}
	.st1{opacity:0.35;enable-background:new    ;}
	.st2{fill:#FFFFFF;}
</style>
<path id="hat" class="st0" d="M335.8,175.7c-18.3-12.9-35.6-27.4-53.2-38.7c-3.5-6.7-29.6-71.8-33.7-80.4
	c-24.9-25-29.9-31.3-52.3-41.7c-31.8-8.1-68.9,1.8-100.9,5.2c-62.9,23.2-85.4,70.6-83.2,136c-1,5.7-1.6,30.7-3.4,32.7
	c11.7-7.9,24.1-15.6,36.9-22.7c28.3,38,38.9,71,96.8,51.1c36.2-12.4,80.8-39.5,123.1-49c25.3,15,34.9,35.3,58.1,52.4
	C371.5,244.9,360.3,189.4,335.8,175.7z"/>
<path id="brim_x5F_shadow" inkscape:connector-curvature="0" sodipodi:nodetypes="cczc" class="st1" d="M323.9,220.4
	c-23.4-17.3-33-37.8-58.8-52.8c38.9-7.4,46.1-5.5,70.5,8C360.2,189.2,371.5,244.9,323.9,220.4z"/>
<path id="front" inkscape:connector-curvature="0" sodipodi:nodetypes="ccccc" class="st2" d="M281.6,138
	c-72.3-34.4-143.1-7.7-217.7,20.2c9.3-114,4.8-145.1,123.3-143.9c19.5,2.7,35.8,18.3,60.7,43.3C252.3,66.8,272.4,116.5,281.6,138z"
	/>
</svg>
