<?xml version="1.0" encoding="utf-8"?>
<!-- Generator: Adobe Illustrator 20.1.0, SVG Export Plug-In . SVG Version: 6.00 Build 0)  -->
<svg version="1.1" id="Layer_1" xmlns="http://www.w3.org/2000/svg" xmlns:xlink="http://www.w3.org/1999/xlink" x="0px" y="0px"
	 viewBox="0 0 484 333" style="enable-background:new 0 0 484 333;" xml:space="preserve">
<style type="text/css">
	.st0{fill:url(#SVGID_1_);}
	.st1{fill:url(#SVGID_2_);stroke:#000000;stroke-miterlimit:10;}
	.st2{fill:url(#SVGID_3_);stroke:#000000;stroke-miterlimit:10;}
	.st3{fill:url(#SVGID_4_);}
	.st4{fill:url(#SVGID_5_);stroke:#000000;stroke-miterlimit:10;}
	.st5{fill:url(#SVGID_6_);stroke:#000000;stroke-miterlimit:10;}
	.st6{fill:url(#SVGID_7_);}
	.st7{fill:url(#SVGID_8_);stroke:#000000;stroke-miterlimit:10;}
	.st8{fill:url(#SVGID_9_);stroke:#000000;stroke-miterlimit:10;}
	.st9{fill:url(#SVGID_10_);}
	.st10{fill:url(#SVGID_11_);stroke:#000000;stroke-miterlimit:10;}
	.st11{fill:url(#SVGID_12_);stroke:#000000;stroke-miterlimit:10;}
	.st12{fill:url(#SVGID_13_);}
	.st13{fill:url(#SVGID_14_);stroke:#000000;stroke-miterlimit:10;}
	.st14{fill:url(#SVGID_15_);stroke:#000000;stroke-miterlimit:10;}
	.st15{fill:url(#SVGID_16_);}
	.st16{fill:url(#SVGID_17_);stroke:#000000;stroke-miterlimit:10;}
	.st17{fill:url(#SVGID_18_);stroke:#000000;stroke-miterlimit:10;}
	.st18{fill:url(#SVGID_19_);}
	.st19{fill:url(#SVGID_20_);stroke:#000000;stroke-miterlimit:10;}
	.st20{fill:url(#SVGID_21_);stroke:#000000;stroke-miterlimit:10;}
	.st21{fill:url(#SVGID_22_);}
	.st22{fill:url(#SVGID_23_);stroke:#000000;stroke-miterlimit:10;}
	.st23{fill:url(#SVGID_24_);stroke:#000000;stroke-miterlimit:10;}
	.st24{fill:url(#SVGID_25_);}
	.st25{fill:url(#SVGID_26_);stroke:#000000;stroke-miterlimit:10;}
	.st26{fill:url(#SVGID_27_);stroke:#000000;stroke-miterlimit:10;}
	.st27{fill:url(#SVGID_28_);}
	.st28{fill:url(#SVGID_29_);stroke:#000000;stroke-miterlimit:10;}
	.st29{fill:url(#SVGID_30_);stroke:#000000;stroke-miterlimit:10;}
	.st30{fill:url(#SVGID_31_);}
	.st31{fill:url(#SVGID_32_);stroke:#000000;stroke-miterlimit:10;}
	.st32{fill:url(#SVGID_33_);stroke:#000000;stroke-miterlimit:10;}
	.st33{fill:url(#SVGID_34_);}
	.st34{fill:url(#SVGID_35_);stroke:#000000;stroke-miterlimit:10;}
	.st35{fill:url(#SVGID_36_);stroke:#000000;stroke-miterlimit:10;}
	.st36{fill:url(#SVGID_37_);}
	.st37{fill:url(#SVGID_38_);stroke:#000000;stroke-miterlimit:10;}
	.st38{fill:url(#SVGID_39_);stroke:#000000;stroke-miterlimit:10;}
	.st39{fill:url(#SVGID_40_);}
	.st40{fill:url(#SVGID_41_);stroke:#000000;stroke-miterlimit:10;}
	.st41{fill:url(#SVGID_42_);stroke:#000000;stroke-miterlimit:10;}
	.st42{fill:url(#SVGID_43_);}
	.st43{fill:url(#SVGID_44_);stroke:#000000;stroke-miterlimit:10;}
	.st44{fill:url(#SVGID_45_);stroke:#000000;stroke-miterlimit:10;}
	.st45{fill:url(#SVGID_46_);}
	.st46{fill:url(#SVGID_47_);stroke:#000000;stroke-miterlimit:10;}
	.st47{fill:url(#SVGID_48_);stroke:#000000;stroke-miterlimit:10;}
	.st48{fill:url(#SVGID_49_);}
	.st49{fill:url(#SVGID_50_);stroke:#000000;stroke-miterlimit:10;}
	.st50{fill:url(#SVGID_51_);stroke:#000000;stroke-miterlimit:10;}
	.st51{fill:url(#SVGID_52_);}
	.st52{fill:url(#SVGID_53_);stroke:#000000;stroke-miterlimit:10;}
	.st53{fill:url(#SVGID_54_);stroke:#000000;stroke-miterlimit:10;}
	.st54{fill:url(#SVGID_55_);}
	.st55{fill:url(#SVGID_56_);stroke:#000000;stroke-miterlimit:10;}
	.st56{fill:url(#SVGID_57_);stroke:#000000;stroke-miterlimit:10;}
	.st57{fill:url(#SVGID_58_);}
	.st58{fill:url(#SVGID_59_);}
	.st59{fill:url(#SVGID_60_);}
	.st60{fill:url(#SVGID_61_);}
	.st61{fill:url(#SVGID_62_);}
	.st62{fill:url(#SVGID_63_);}
</style>
<g>
	<g>
		<g>
			<linearGradient id="SVGID_1_" gradientUnits="userSpaceOnUse" x1="451.6058" y1="21.3562" x2="476.4225" y2="21.3562">
				<stop  offset="0" style="stop-color:#F2A403"/>
				<stop  offset="1" style="stop-color:#F2CF03"/>
			</linearGradient>
			<path class="st0" d="M463.5,37.1c-0.7,0-1.4-0.1-2-0.2c-3.3-0.7-6.1-2.9-7.9-6.4c-0.8-1.6-1.4-3.2-1.7-5
				c-0.3-1.7-0.3-3.4-0.1-5.4c0.3-4.3,2.4-7.8,4-9.9c2.5-3,5.7-4.6,9.1-4.6l0.1,0c3.6,0,6.7,2,8.9,5.4c2,3,2.9,7,2.5,11.7
				c-0.1,1.9-0.7,3.9-1.7,6.1c-0.9,1.9-1.9,3.5-3.2,4.9c-1.6,1.7-3.5,2.6-4.8,3C465.6,37,464.6,37.1,463.5,37.1L463.5,37.1z
				 M464.6,11.9c-1.8,0-3.3,1.3-4.2,2.5c-1.4,1.7-2.2,3.9-2.5,6.3c-0.1,0.6-0.1,1.2,0,1.8c0,0.6,0,1.2,0.1,1.8
				c0.2,1.1,0.5,2.2,0.9,3.1c0.9,1.9,2.3,3.1,3.8,3.4c0.2,0,0.4,0.1,0.6,0.1c1.3,0,2.7-0.8,3.9-2.1c0.7-0.8,1.3-1.8,1.8-2.9
				c0.3-0.6,0.5-1.2,0.7-1.8c0.1-0.6,0.2-1.3,0.3-1.9c0.2-2.6-0.2-5.2-1.2-7.1c-1-1.8-2.5-2.9-4.1-3L464.6,11.9z"/>
			<path d="M464.8,6.1c0,0,0.1,0,0.1,0c3.3,0,6.4,1.8,8.5,5.2c2.1,3.1,2.7,7.2,2.4,11.4c-0.1,2.1-0.8,4.1-1.6,5.9
				c-0.8,1.8-1.9,3.4-3.1,4.7c-1.3,1.4-3,2.4-4.6,2.9c-1,0.3-2,0.5-3,0.5c-0.6,0-1.3-0.1-1.9-0.2c-3.3-0.7-5.9-2.9-7.6-6.2
				c-0.8-1.5-1.4-3.2-1.7-4.9c-0.3-1.7-0.3-3.5-0.1-5.3c0.3-3.6,1.9-7,3.9-9.6C458.4,7.7,461.5,6.1,464.8,6.1 M463.3,31.3
				c1.5,0,3-0.8,4.3-2.3c0.7-0.8,1.4-1.9,1.9-3c0.3-0.6,0.5-1.2,0.7-1.9c0.2-0.7,0.3-1.3,0.3-2c0.3-2.8-0.3-5.5-1.3-7.4
				c-1.1-1.9-2.7-3.2-4.5-3.3c-0.1,0-0.1,0-0.2,0c-1.7,0-3.3,1-4.6,2.7c-1.4,1.7-2.3,4-2.6,6.6c-0.1,0.6-0.1,1.3,0,1.9
				c0,0.6,0,1.2,0.1,1.8c0.2,1.2,0.5,2.3,1,3.2c0.9,1.9,2.4,3.3,4.1,3.6C462.9,31.2,463.1,31.3,463.3,31.3 M464.8,5.1
				c-3.5,0-6.9,1.7-9.5,4.8c-1.7,2.2-3.8,5.7-4.2,10.1c-0.1,2.1-0.2,3.9,0.2,5.6c0.3,1.8,0.9,3.6,1.8,5.2c1.9,3.7,4.8,6,8.3,6.7
				c0.7,0.1,1.4,0.2,2.1,0.2c1.1,0,2.2-0.2,3.3-0.5c1.3-0.5,3.3-1.4,5-3.2c1.3-1.4,2.4-3,3.3-5c1-2.2,1.6-4.3,1.7-6.3
				c0.4-4.8-0.5-9-2.6-12c-2.3-3.6-5.6-5.6-9.3-5.6L464.8,5.1L464.8,5.1z M463.3,30.3c-0.2,0-0.4,0-0.5,0c-1.3-0.2-2.6-1.4-3.4-3.1
				c-0.4-0.9-0.7-1.9-0.9-2.9c-0.1-0.5-0.1-1.1-0.1-1.7l0,0l0,0c0-0.6,0-1.2,0-1.8c0.2-2.3,1-4.4,2.3-6c0.8-1,2.2-2.3,3.8-2.3
				c0,0,0.1,0,0.1,0c1.4,0.1,2.8,1.1,3.7,2.7c1,1.8,1.4,4.3,1.2,6.8c-0.1,0.7-0.2,1.3-0.3,1.9c-0.2,0.6-0.4,1.2-0.6,1.7
				c-0.5,1.1-1.1,2-1.7,2.8C465.8,29.6,464.5,30.3,463.3,30.3L463.3,30.3z"/>
		</g>
		<linearGradient id="SVGID_2_" gradientUnits="userSpaceOnUse" x1="461.8272" y1="11.4108" x2="467.6449" y2="11.4108">
			<stop  offset="0" style="stop-color:#F2A403"/>
			<stop  offset="1" style="stop-color:#F2CF03"/>
		</linearGradient>
		<path class="st1" d="M467.6,3.9c0,0-0.1,3.1-0.2,6.2c-0.1,1.6-0.1,3.1-0.2,4.3c-0.1,1.2-0.2,1.9-0.2,1.9c-0.1,1.5-1.4,2.6-2.9,2.5
			s-2.5-1.4-2.4-2.9c0,0,0.1-0.8,0.2-1.9c0.1-1.1,0.1-2.6,0.2-4.2c0.1-3,0.2-6,0.2-6"/>
		<linearGradient id="SVGID_3_" gradientUnits="userSpaceOnUse" x1="458.6909" y1="31.2882" x2="465.9756" y2="31.2882">
			<stop  offset="0" style="stop-color:#F2A403"/>
			<stop  offset="1" style="stop-color:#F2CF03"/>
		</linearGradient>
		<path class="st2" d="M458.7,37.5c0,0,0.1-0.7,0.4-1.7c0.2-1,0.5-2.4,0.8-3.8c0.4-2.8,0.9-5.6,0.9-5.6c0.2-1.4,1.6-2.4,3-2.3
			s2.4,1.5,2.2,3c0,0-0.4,2.9-0.9,5.8c-0.3,1.4-0.6,2.9-0.8,4c-0.2,1.1-0.4,1.8-0.4,1.8"/>
	</g>
	<g>
		<g>
			<linearGradient id="SVGID_4_" gradientUnits="userSpaceOnUse" x1="443.9522" y1="54.9021" x2="469.4956" y2="54.9021">
				<stop  offset="0" style="stop-color:#F2A403"/>
				<stop  offset="1" style="stop-color:#F2CF03"/>
			</linearGradient>
			<path class="st3" d="M455,70.4c-1.3,0-2.7-0.3-3.9-0.8c-3.1-1.4-5.5-4.2-6.5-8c-0.5-1.7-0.7-3.5-0.5-5.3c0-1.8,0.3-3.6,0.9-5.4
				c1.4-3.9,3.5-6.8,6.1-8.8c2.5-1.9,5.1-2.8,7.6-2.8c0.8,0,1.6,0.1,2.3,0.3c3.5,0.8,6.3,3.4,7.6,7.2c1.3,3.8,1.3,8.1-0.1,12
				c-0.7,2-1.6,3.9-2.8,5.6c-1.3,1.7-2.7,3-4.3,4C459.3,69.7,457.1,70.4,455,70.4L455,70.4z M458.4,45.7c-1.2,0-2.6,0.6-3.8,1.6
				c-0.8,0.7-1.5,1.5-2.1,2.4c-0.7,1-1.3,2.1-1.6,3.2c-0.4,1.2-0.6,2.3-0.7,3.5c0,0.6,0,1.1,0.1,1.7c0.1,0.7,0.1,1.1,0.2,1.6
				c0.4,2,1.5,3.5,2.9,4c0.4,0.2,0.9,0.3,1.4,0.3c1.1,0,2.4-0.5,3.5-1.3c0.5-0.4,0.9-0.7,1.3-1.1c0.4-0.4,0.7-0.9,1.1-1.4
				c0.7-1,1.3-2.2,1.7-3.5c0.4-1.3,0.7-2.5,0.7-3.8c0-1.2-0.2-2.4-0.5-3.4c-0.6-2-1.8-3.4-3.3-3.8C459.1,45.7,458.7,45.7,458.4,45.7
				z"/>
			<path d="M458.6,39.9c0.7,0,1.5,0.1,2.2,0.2c3.2,0.7,6,3.1,7.2,6.8c1.2,3.4,1.3,7.7-0.1,11.6c-0.7,2-1.6,3.9-2.7,5.5
				c-1.2,1.6-2.6,2.9-4.1,3.9c-2,1.3-4.1,2-6.1,2c-1.3,0-2.5-0.3-3.7-0.8c-3-1.3-5.2-4.1-6.2-7.7c-0.5-1.6-0.6-3.4-0.5-5.1
				c0-1.8,0.3-3.5,0.9-5.3c1.3-3.4,3.1-6.5,5.9-8.5C453.6,40.8,456.1,39.9,458.6,39.9 M454.9,64.5c1.2,0,2.6-0.5,3.8-1.4
				c0.5-0.3,0.9-0.7,1.3-1.1c0.4-0.4,0.8-0.9,1.1-1.4c0.7-1.1,1.3-2.3,1.8-3.6c0.4-1.3,0.7-2.7,0.8-3.9c0-1.3-0.2-2.5-0.5-3.6
				c-0.7-2.1-1.9-3.7-3.7-4.1c-0.4-0.1-0.7-0.1-1.1-0.1c-1.4,0-2.9,0.6-4.1,1.7c-0.8,0.7-1.6,1.5-2.2,2.6c-0.7,1-1.3,2.1-1.7,3.3
				c-0.4,1.2-0.6,2.5-0.7,3.7c0,0.6,0,1.2,0.1,1.8c0,0.6,0.1,1.1,0.2,1.6c0.5,2.1,1.6,3.7,3.2,4.4C453.8,64.4,454.3,64.5,454.9,64.5
				 M458.6,38.9c-2.7,0-5.3,1-7.9,2.9c-2.7,2-4.8,5-6.2,9c-0.6,1.8-0.9,3.7-1,5.6c-0.1,1.8,0.1,3.7,0.6,5.4c1.1,3.9,3.5,6.9,6.8,8.3
				c1.3,0.6,2.7,0.9,4.1,0.9c2.2,0,4.5-0.7,6.7-2.1c1.6-1.1,3.1-2.4,4.4-4.1c1.2-1.7,2.2-3.7,2.9-5.8c1.4-3.9,1.5-8.4,0.1-12.3
				c-1.3-3.9-4.2-6.6-7.9-7.5C460.3,39,459.4,38.9,458.6,38.9L458.6,38.9z M454.9,63.5c-0.4,0-0.9-0.1-1.2-0.2
				c-1.3-0.5-2.2-1.8-2.6-3.7c-0.1-0.4-0.2-0.9-0.2-1.5c-0.1-0.5-0.1-1.1-0.1-1.6c0-1.1,0.3-2.3,0.6-3.4c0.4-1.1,0.9-2.1,1.6-3.1
				l0,0l0,0c0.6-0.9,1.2-1.7,2-2.3c1.1-1,2.4-1.5,3.5-1.5c0.3,0,0.6,0,0.9,0.1c1.3,0.4,2.4,1.6,3,3.5c0.3,1,0.5,2.1,0.5,3.3
				c-0.1,1.2-0.3,2.4-0.7,3.6c-0.4,1.2-1,2.3-1.7,3.4c-0.3,0.5-0.7,0.9-1.1,1.3c-0.3,0.3-0.7,0.7-1.2,1
				C457,63.1,455.9,63.5,454.9,63.5L454.9,63.5z"/>
		</g>
		<linearGradient id="SVGID_5_" gradientUnits="userSpaceOnUse" x1="455.6223" y1="45.0459" x2="463.8606" y2="45.0459">
			<stop  offset="0" style="stop-color:#F2A403"/>
			<stop  offset="1" style="stop-color:#F2CF03"/>
		</linearGradient>
		<path class="st4" d="M463.9,38.6c0,0-0.2,0.8-0.4,1.9c-0.1,0.6-0.3,1.2-0.4,2c-0.2,0.7-0.4,1.5-0.6,2.2c-0.8,3-1.7,6-1.7,6
			c-0.4,1.5-1.9,2.2-3.3,1.8c-1.4-0.4-2.1-1.9-1.8-3.3c0,0,0.8-2.9,1.6-5.8c0.2-0.7,0.4-1.5,0.6-2.1c0.1-0.7,0.3-1.3,0.4-1.9
			c0.2-1.1,0.4-1.8,0.4-1.8"/>
		<linearGradient id="SVGID_6_" gradientUnits="userSpaceOnUse" x1="448.1374" y1="64.4631" x2="457.5863" y2="64.4631">
			<stop  offset="0" style="stop-color:#F2A403"/>
			<stop  offset="1" style="stop-color:#F2CF03"/>
		</linearGradient>
		<path class="st5" d="M448.1,69.5c0,0,0.3-0.6,0.8-1.6c0.4-1,0.9-2.3,1.5-3.6c0.5-1.3,1.1-2.6,1.5-3.6c0.2-0.5,0.4-0.9,0.5-1.2
			c0.1-0.3,0.2-0.5,0.2-0.5c0.5-1.4,2-2.1,3.3-1.6s2.1,2,1.6,3.4c0,0,0,0.2-0.2,0.5c-0.1,0.3-0.3,0.7-0.5,1.2c-0.4,1-1,2.4-1.5,3.7
			c-0.6,1.4-1.1,2.7-1.5,3.7c-0.5,1-0.8,1.7-0.8,1.7"/>
	</g>
	<g>
		<g>
			<linearGradient id="SVGID_7_" gradientUnits="userSpaceOnUse" x1="429.3433" y1="86.1782" x2="456.0021" y2="86.1782">
				<stop  offset="0" style="stop-color:#F2A403"/>
				<stop  offset="1" style="stop-color:#F2CF03"/>
			</linearGradient>
			<path class="st6" d="M439.9,101.2c-2.1,0-4.1-0.6-5.8-1.8c-2.8-2-4.5-5.2-4.7-9.1c-0.1-2.1,0.1-3.8,0.4-5.3
				c0.4-1.8,1.1-3.5,2.1-5.1c1.7-3.2,4.5-5.8,7.7-7.4c1.9-1,3.8-1.4,5.8-1.4c1.6,0,3.1,0.3,4.5,1c3.2,1.5,5.4,4.5,6,8.6
				c0.5,3.6-0.3,7.8-2.5,11.7c-2.4,3.9-5.5,6.7-8.9,8C443,100.9,441.4,101.2,439.9,101.2L439.9,101.2z M445.3,77.4
				c-2.8,0-6.1,2.3-7.9,5.7c-2.5,4.1-2.4,9.3,0.3,11.1c0.6,0.4,1.4,0.6,2.2,0.6c2.7,0,6-2.3,8-5.7c1.6-2.9,2.1-6.3,1.3-8.7
				c-0.4-1.3-1.1-2.2-2.1-2.7C446.6,77.6,446,77.4,445.3,77.4z"/>
			<path d="M445.4,71.6c1.5,0,2.9,0.3,4.2,0.9c3,1.4,5.1,4.3,5.7,8.2c0.5,3.6-0.4,7.6-2.4,11.3c-2.2,3.6-5.2,6.4-8.6,7.8
				c-1.5,0.6-3,0.9-4.5,0.9c-2,0-3.9-0.6-5.5-1.7c-2.7-1.9-4.3-5-4.5-8.7c-0.1-1.7,0-3.5,0.4-5.2c0.4-1.7,1.1-3.4,2.1-5
				c1.7-3.2,4.4-5.7,7.5-7.2C441.7,72.1,443.6,71.6,445.4,71.6 M439.9,95.4c2.8,0,6.2-2.3,8.5-5.9c2.7-5,2.2-10.5-1-12.1
				c-0.6-0.3-1.4-0.5-2.1-0.5c-2.9,0-6.4,2.3-8.3,5.9c-2.7,4.4-2.4,9.8,0.5,11.8C438.2,95.1,439,95.4,439.9,95.4 M445.4,70.6
				c-2,0-4,0.5-6,1.5c-3.3,1.6-6.2,4.3-7.9,7.6c-1,1.6-1.7,3.4-2.2,5.2c-0.4,1.5-0.5,3.3-0.4,5.4c0.3,4.1,2,7.4,5,9.5
				c1.8,1.2,3.8,1.9,6.1,1.9c1.6,0,3.2-0.3,4.8-0.9c3.4-1.3,6.7-4.2,9.1-8.2l0,0l0,0c2.2-4,3.1-8.3,2.5-12c-0.7-4.2-2.9-7.4-6.3-9
				C448.6,71,447,70.6,445.4,70.6L445.4,70.6z M439.9,94.4c-0.7,0-1.4-0.2-1.9-0.5c-2.5-1.7-2.6-6.5-0.2-10.4l0,0l0,0
				c1.7-3.2,4.8-5.4,7.5-5.4c0.6,0,1.2,0.1,1.7,0.4c1.1,0.5,1.6,1.6,1.9,2.4c0.7,2.3,0.2,5.5-1.3,8.3
				C445.5,92.2,442.5,94.4,439.9,94.4L439.9,94.4z"/>
		</g>
		<linearGradient id="SVGID_8_" gradientUnits="userSpaceOnUse" x1="442.4477" y1="76.9164" x2="452.9632" y2="76.9164">
			<stop  offset="0" style="stop-color:#F2A403"/>
			<stop  offset="1" style="stop-color:#F2CF03"/>
		</linearGradient>
		<path class="st7" d="M453,71.7c0,0-1.3,2.8-2.7,5.7c-0.6,1.4-1.4,2.8-2,3.8c-0.6,1-0.9,1.7-0.9,1.7c-0.7,1.3-2.3,1.8-3.6,1.1
			s-1.8-2.3-1.1-3.6c0,0,0.4-0.7,0.9-1.7c0.5-1,1.3-2.3,1.9-3.7c1.3-2.7,2.6-5.5,2.6-5.5"/>
		<linearGradient id="SVGID_9_" gradientUnits="userSpaceOnUse" x1="431.3264" y1="94.9839" x2="442.5096" y2="94.9839">
			<stop  offset="0" style="stop-color:#F2A403"/>
			<stop  offset="1" style="stop-color:#F2CF03"/>
		</linearGradient>
		<path class="st8" d="M431.3,98.8c0,0,1.6-2.4,3.2-4.7c0.8-1.2,1.6-2.4,2.1-3.3c0.6-0.9,0.9-1.5,0.9-1.5c0.8-1.2,2.4-1.6,3.6-0.9
			c1.3,0.7,1.6,2.4,0.9,3.7c0,0-0.4,0.6-1,1.6c-0.6,0.9-1.3,2.2-2.2,3.4c-1.7,2.4-3.3,4.8-3.3,4.8"/>
	</g>
	<g>
		<g>
			<linearGradient id="SVGID_10_" gradientUnits="userSpaceOnUse" x1="408.8549" y1="114.1855" x2="436.7627" y2="114.1855">
				<stop  offset="0" style="stop-color:#F2A403"/>
				<stop  offset="1" style="stop-color:#F2CF03"/>
			</linearGradient>
			<path class="st9" d="M419.3,128.7c-1,0-1.9-0.1-2.8-0.4c-1.7-0.5-3.2-1.4-4.5-2.6c-1.2-1.2-2.1-2.7-2.6-4.4
				c-0.5-1.7-0.7-3.6-0.5-5.4c0.3-3.3,1.8-6.6,4.4-9.8c1.2-1.4,2.6-2.7,4.2-3.6c1.5-1,3.1-1.8,4.8-2.2c1.2-0.3,2.5-0.5,3.7-0.5
				c2.4,0,4.7,0.7,6.5,2c2.9,2.1,4.4,5.4,4.2,9.5c-0.1,1.9-0.5,3.8-1.3,5.7c-0.8,1.9-1.9,3.6-3.3,5.3c-2.6,3.1-6.2,5.4-10.1,6.2
				C421.1,128.6,420.2,128.7,419.3,128.7L419.3,128.7z M426,105.9c-0.7,0-1.5,0.1-2.3,0.4c-1,0.3-2,0.8-2.9,1.4
				c-1,0.7-1.9,1.5-2.7,2.4c-0.8,0.9-1.4,2-1.9,3.1c-0.5,1.1-0.9,2.1-1,3.1c-0.3,2,0.1,3.8,1.2,4.9c0.8,0.7,1.8,1.1,3.1,1.1
				c0.6,0,1.2-0.1,1.9-0.2c1.1-0.3,2.2-0.7,3.1-1.4c1-0.7,2-1.6,2.8-2.6c0.9-1,1.6-2.1,2.1-3.2c0.5-1.1,0.8-2.2,0.9-3.3
				c0.2-2.1-0.4-3.9-1.6-4.8C428,106.2,427.1,105.9,426,105.9z"/>
			<path d="M426,100.2c2.3,0,4.5,0.6,6.3,1.9c2.7,2,4.1,5.1,4,9.1c-0.1,1.8-0.5,3.7-1.2,5.5c-0.8,1.8-1.9,3.5-3.2,5.1
				c-2.6,3.2-6.3,5.3-9.8,6.1c-0.9,0.2-1.8,0.3-2.6,0.3c-0.9,0-1.8-0.1-2.7-0.3c-1.6-0.5-3.1-1.3-4.3-2.5c-1.2-1.2-2-2.6-2.5-4.2
				c-0.5-1.6-0.7-3.4-0.5-5.2c0.3-3.4,2-6.7,4.3-9.6c1.2-1.4,2.6-2.6,4.1-3.5c1.4-1,3-1.7,4.7-2.2
				C423.7,100.4,424.9,100.2,426,100.2 M419.5,122.8c0.6,0,1.3-0.1,2-0.3c1.1-0.3,2.2-0.7,3.3-1.4c1-0.7,2.1-1.6,3-2.7
				c0.9-1.1,1.6-2.2,2.2-3.4c0.5-1.1,0.9-2.3,0.9-3.4c0.2-2.2-0.4-4.1-1.8-5.2c-0.8-0.6-1.9-0.9-3-0.9c-0.8,0-1.6,0.1-2.4,0.4
				c-1,0.3-2,0.8-3.1,1.5c-1,0.7-2,1.5-2.8,2.5c-0.8,1-1.5,2.1-2,3.2c-0.5,1.1-0.9,2.2-1,3.2c-0.3,2.1,0.1,4.1,1.4,5.3
				C417,122.4,418.2,122.8,419.5,122.8 M426,99.2c-1.2,0-2.5,0.2-3.8,0.5c-1.7,0.5-3.4,1.2-5,2.3c-1.6,1-3,2.2-4.3,3.7
				c-2.7,3.3-4.2,6.7-4.5,10.1c-0.2,1.9,0,3.9,0.5,5.6c0.5,1.8,1.5,3.3,2.7,4.6c1.3,1.3,2.9,2.2,4.7,2.7c0.9,0.3,1.9,0.4,3,0.4
				c0.9,0,1.9-0.1,2.8-0.3c4-0.8,7.7-3.2,10.4-6.4c1.4-1.7,2.5-3.5,3.4-5.3c0.8-2,1.2-4,1.3-5.9c0.2-4.2-1.4-7.7-4.4-9.9
				C430.9,99.9,428.6,99.2,426,99.2L426,99.2z M419.5,121.8c-1.1,0-2.1-0.3-2.8-1c-1-0.9-1.4-2.5-1.1-4.4c0.1-0.9,0.5-1.9,1-2.9
				c0.5-1.1,1.1-2.1,1.9-3c0.8-0.9,1.6-1.7,2.6-2.3c0.9-0.6,1.9-1,2.8-1.4c0.7-0.2,1.4-0.4,2.1-0.4c1,0,1.8,0.2,2.4,0.7
				c1.1,0.8,1.6,2.4,1.4,4.4c-0.1,1-0.4,2-0.9,3.1c-0.5,1.1-1.2,2.2-2,3.1c-0.8,1-1.8,1.8-2.8,2.5c-0.9,0.6-1.9,1-3,1.3
				C420.7,121.7,420.1,121.8,419.5,121.8L419.5,121.8z"/>
		</g>
		<linearGradient id="SVGID_11_" gradientUnits="userSpaceOnUse" x1="423.4043" y1="105.8429" x2="435.6444" y2="105.8429">
			<stop  offset="0" style="stop-color:#F2A403"/>
			<stop  offset="1" style="stop-color:#F2CF03"/>
		</linearGradient>
		<path class="st10" d="M435.6,101.9c0,0-0.4,0.6-1.1,1.6c-0.7,0.9-1.7,2.2-2.6,3.4c-0.9,1.2-1.9,2.5-2.6,3.4
			c-0.4,0.5-0.7,0.8-0.9,1.1c-0.2,0.3-0.3,0.4-0.3,0.4c-1,1.1-2.7,1.3-3.8,0.4s-1.3-2.6-0.3-3.7c0,0,0.1-0.1,0.3-0.4
			c0.2-0.3,0.5-0.6,0.8-1.1c0.7-0.9,1.6-2.1,2.5-3.3c0.9-1.2,1.8-2.4,2.5-3.3c0.6-0.9,1.1-1.6,1.1-1.6"/>
		<linearGradient id="SVGID_12_" gradientUnits="userSpaceOnUse" x1="409.3603" y1="121.9413" x2="421.9152" y2="121.9413">
			<stop  offset="0" style="stop-color:#F2A403"/>
			<stop  offset="1" style="stop-color:#F2CF03"/>
		</linearGradient>
		<path class="st11" d="M409.4,124.6c0,0,0.5-0.5,1.3-1.2c0.8-0.7,1.8-1.8,2.7-2.8c2-2.1,3.9-4.2,3.9-4.2c1-1,2.6-1.2,3.7-0.2
			c1.1,1,1.2,2.7,0.2,3.8c0,0-2,2.1-4,4.3c-1,1.1-2,2.2-2.8,2.9c-0.8,0.8-1.3,1.3-1.3,1.3"/>
	</g>
	<g>
		<g>
			<linearGradient id="SVGID_13_" gradientUnits="userSpaceOnUse" x1="383.8007" y1="138.2578" x2="412.8919" y2="138.2578">
				<stop  offset="0" style="stop-color:#F2A403"/>
				<stop  offset="1" style="stop-color:#F2CF03"/>
			</linearGradient>
			<path class="st12" d="M395,152.2c-3.9,0-7.2-1.5-9.2-4.3c-2-2.8-2.5-6.4-1.4-10.2c1-3.6,3.2-6.7,6-9c3-2.5,6.4-4,9.9-4.3
				c0.5-0.1,1-0.1,1.5-0.1c3.3,0,6.1,1.1,8.2,3.3c2.5,2.6,3.4,6.2,2.6,10.1c-0.9,3.6-3.2,7.3-6.4,10c-3.5,2.8-7.4,4.3-11,4.4
				L395,152.2z M401.7,130.6c-2.4,0-5.1,1.1-7.2,3c-3.8,3-5.4,8-3.5,10.6c1,1.4,2.7,1.7,3.9,1.7c2.4,0,5.1-1.1,7.4-2.9
				c2.5-2.1,4.1-5,4.3-7.6c0.1-1.4-0.3-2.5-1-3.3C404.6,131.1,403.3,130.6,401.7,130.6z"/>
			<path d="M401.8,124.8c3.1,0,5.8,1.1,7.9,3.1c2.3,2.4,3.2,5.8,2.4,9.7c-0.8,3.5-3,7-6.2,9.7c-3.3,2.6-7,4.2-10.6,4.3
				c-0.1,0-0.2,0-0.3,0c-3.8,0-6.9-1.5-8.8-4.1c-1.9-2.7-2.4-6.2-1.3-9.7c1-3.3,2.9-6.4,5.9-8.7c2.8-2.4,6.2-3.9,9.7-4.2
				C400.9,124.9,401.3,124.8,401.8,124.8 M394.9,146.3c2.4,0,5.2-1,7.7-3c4.3-3.6,5.7-9,3.3-11.6c-1-1.1-2.5-1.6-4.2-1.6
				c-2.4,0-5.2,1.1-7.6,3.1c-4.1,3.2-5.7,8.4-3.6,11.3C391.5,145.7,393,146.3,394.9,146.3 M401.8,123.8c-0.5,0-1,0-1.6,0.1
				c-3.6,0.3-7.1,1.8-10.2,4.4c-2.9,2.3-5.1,5.6-6.2,9.2c-1.1,3.9-0.6,7.7,1.5,10.6c2.1,2.9,5.5,4.5,9.6,4.5c0.1,0,0.2,0,0.3,0
				c3.7-0.1,7.7-1.7,11.2-4.5c3.3-2.8,5.7-6.5,6.5-10.2c0.9-4.2-0.1-7.9-2.7-10.6C408.2,125,405.3,123.8,401.8,123.8L401.8,123.8z
				 M394.9,145.3c-1.1,0-2.6-0.3-3.5-1.5c-1.8-2.4-0.2-7,3.4-9.9c2.1-1.8,4.7-2.9,6.9-2.9c1,0,2.4,0.2,3.4,1.3
				c0.8,0.9,0.9,2.1,0.9,2.9c-0.1,2.4-1.7,5.2-4.1,7.2C399.7,144.3,397.1,145.3,394.9,145.3L394.9,145.3z"/>
		</g>
		<linearGradient id="SVGID_14_" gradientUnits="userSpaceOnUse" x1="399.5561" y1="131.0632" x2="413.0735" y2="131.0632">
			<stop  offset="0" style="stop-color:#F2A403"/>
			<stop  offset="1" style="stop-color:#F2CF03"/>
		</linearGradient>
		<path class="st13" d="M413.1,128.4c0,0-2.2,2.2-4.5,4.3c-1.1,1.1-2.3,2.1-3.2,2.8c-0.9,0.8-1.5,1.3-1.5,1.3
			c-1.1,1-2.8,0.9-3.7-0.2c-0.9-1.1-0.8-2.8,0.3-3.8c0,0,0.6-0.5,1.4-1.3c0.8-0.8,2-1.7,3.1-2.8c2.2-2.1,4.4-4.2,4.4-4.2"/>
		<linearGradient id="SVGID_15_" gradientUnits="userSpaceOnUse" x1="383.3516" y1="144.7879" x2="396.8018" y2="144.7879">
			<stop  offset="0" style="stop-color:#F2A403"/>
			<stop  offset="1" style="stop-color:#F2CF03"/>
		</linearGradient>
		<path class="st14" d="M383.4,146.4c0,0,2.3-1.7,4.6-3.4c1.2-0.8,2.3-1.7,3.1-2.4c0.8-0.7,1.4-1.1,1.4-1.1c1.1-0.9,2.8-0.7,3.7,0.4
			c0.9,1.1,0.7,2.8-0.4,3.7c0,0-0.6,0.5-1.4,1.1c-0.9,0.7-2,1.6-3.2,2.4c-2.4,1.7-4.7,3.4-4.7,3.4"/>
	</g>
	<g>
		<g>
			<linearGradient id="SVGID_16_" gradientUnits="userSpaceOnUse" x1="355.3081" y1="158.054" x2="385.3362" y2="158.054">
				<stop  offset="0" style="stop-color:#F2A403"/>
				<stop  offset="1" style="stop-color:#F2CF03"/>
			</linearGradient>
			<path class="st15" d="M367.1,171.5c-0.6,0-1.3,0-1.9-0.1c-4-0.5-7.1-2.5-8.7-5.6c-1.6-3.1-1.5-6.7,0.1-10.3
				c0.7-1.6,1.8-3.1,3-4.4c1.3-1.4,2.7-2.6,4.3-3.6c1.4-0.9,3.1-1.6,5.2-2.1c1.4-0.4,2.9-0.6,4.3-0.6c0.3,0,0.7,0,1,0
				c3.9,0.3,7.2,2,9.2,4.8c2,2.9,2.3,6.6,0.9,10.3c-0.7,1.7-1.7,3.4-3,4.9c-1.2,1.4-2.7,2.7-4.8,3.9c-1.9,1.1-3.8,1.9-5.7,2.4
				C369.6,171.3,368.3,171.5,367.1,171.5L367.1,171.5z M373.7,150.9c-2.3,0-4.6,0.7-6.6,1.9c-1.1,0.6-2,1.4-2.8,2.3
				c-0.4,0.4-0.8,0.9-1.1,1.3c-0.3,0.5-0.6,0.9-0.8,1.3c-0.9,1.8-1.1,3.6-0.3,5c0.7,1.4,2.3,2.2,4.5,2.4c0.2,0,0.5,0,0.8,0
				c0.3,0,0.6,0,0.9,0c0.5-0.1,1.1-0.2,1.7-0.3c1.2-0.3,2.4-0.8,3.5-1.5c2.3-1.4,4-3.2,4.9-5.2c0.9-2,0.9-3.8,0-5.1
				C377.4,151.7,375.8,151,373.7,150.9z"/>
			<path d="M373.4,145.2c0.3,0,0.7,0,1,0c3.7,0.2,6.9,1.9,8.8,4.6c1.9,2.8,2.2,6.2,0.8,9.9c-0.7,1.7-1.7,3.3-2.9,4.8
				c-1.3,1.5-2.9,2.7-4.7,3.8c-1.8,1.1-3.7,1.9-5.5,2.3c-1.3,0.3-2.5,0.4-3.8,0.4c-0.6,0-1.2,0-1.9-0.1c-3.9-0.5-6.8-2.4-8.3-5.4
				c-1.5-3-1.4-6.5,0.1-9.9c0.7-1.6,1.7-3,2.9-4.3c1.2-1.3,2.6-2.5,4.2-3.5c1.6-1,3.3-1.6,5-2.1C370.6,145.4,372,145.2,373.4,145.2
				 M367.3,165.6c0.3,0,0.6,0,0.9,0c0.6-0.1,1.2-0.2,1.8-0.4c1.2-0.3,2.5-0.9,3.7-1.6c2.4-1.4,4.2-3.4,5.1-5.4c0.9-2,1-4,0-5.5
				c-1-1.5-2.8-2.2-5-2.3c-2.1,0-4.6,0.6-6.9,1.9c-1.1,0.7-2.1,1.5-2.9,2.4c-0.4,0.4-0.8,0.9-1.1,1.4c-0.3,0.5-0.6,0.9-0.9,1.4
				c-1,1.9-1.2,3.9-0.3,5.5c0.9,1.6,2.6,2.5,4.9,2.7C366.7,165.6,367,165.6,367.3,165.6 M373.4,144.2c-1.5,0-3,0.2-4.5,0.6
				c-2.1,0.6-3.8,1.3-5.3,2.2c-1.6,1-3.1,2.2-4.4,3.7c-1.3,1.3-2.3,2.9-3.1,4.5c-1.7,3.7-1.7,7.6-0.1,10.8c1.7,3.3,4.9,5.4,9.1,5.9
				c0.6,0.1,1.3,0.1,2,0.1c1.3,0,2.6-0.1,4-0.4c2-0.5,3.9-1.3,5.8-2.4c2.1-1.3,3.7-2.6,4.9-4c1.4-1.6,2.4-3.3,3.1-5.1
				c1.5-3.9,1.2-7.8-0.9-10.8c-2.1-3-5.4-4.7-9.5-5C374.1,144.2,373.7,144.2,373.4,144.2L373.4,144.2z M367.3,164.6
				c-0.2,0-0.5,0-0.7,0c-2-0.2-3.4-0.9-4.1-2.1c-0.6-1.2-0.5-2.8,0.4-4.5c0.2-0.4,0.5-0.8,0.8-1.3c0.3-0.5,0.7-0.9,1-1.3
				c0.8-0.8,1.7-1.6,2.7-2.2c1.9-1.1,4.2-1.8,6.3-1.8c1.9,0,3.4,0.7,4.1,1.8c0.8,1.2,0.7,2.8,0,4.6c-0.8,1.9-2.5,3.7-4.7,5
				c-1.1,0.6-2.2,1.1-3.4,1.5c-0.6,0.2-1.1,0.3-1.7,0.3C367.8,164.6,367.6,164.6,367.3,164.6L367.3,164.6z"/>
		</g>
		<linearGradient id="SVGID_17_" gradientUnits="userSpaceOnUse" x1="372.0035" y1="152.1828" x2="386.4106" y2="152.1828">
			<stop  offset="0" style="stop-color:#F2A403"/>
			<stop  offset="1" style="stop-color:#F2CF03"/>
		</linearGradient>
		<path class="st16" d="M386.4,150.7c0,0-0.6,0.5-1.6,1.1c-0.9,0.7-2.3,1.5-3.6,2.4c-2.6,1.7-5.2,3.4-5.2,3.4
			c-1.3,0.8-2.9,0.4-3.7-0.9c-0.8-1.3-0.4-2.8,0.9-3.6c0,0,2.5-1.7,5.1-3.3c1.3-0.8,2.6-1.7,3.5-2.3c0.9-0.7,1.5-1.1,1.5-1.1"/>
		<linearGradient id="SVGID_18_" gradientUnits="userSpaceOnUse" x1="354.2696" y1="163.3291" x2="368.3216" y2="163.3291">
			<stop  offset="0" style="stop-color:#F2A403"/>
			<stop  offset="1" style="stop-color:#F2CF03"/>
		</linearGradient>
		<path class="st17" d="M354.3,163.8c0,0,0.2-0.1,0.4-0.2c0.3-0.1,0.7-0.3,1.2-0.6c0.9-0.5,2.2-1.2,3.5-1.9c1.3-0.7,2.5-1.4,3.5-1.9
			c0.9-0.5,1.6-0.9,1.6-0.9c1.2-0.7,2.9-0.3,3.6,0.9c0.7,1.3,0.3,2.9-1,3.7c0,0-0.6,0.4-1.6,0.9c-1,0.5-2.3,1.2-3.5,1.9
			c-1.3,0.7-2.6,1.4-3.5,1.9c-0.5,0.3-0.9,0.5-1.2,0.6c-0.3,0.1-0.5,0.2-0.5,0.2"/>
	</g>
	<g>
		<g>
			<linearGradient id="SVGID_19_" gradientUnits="userSpaceOnUse" x1="324.2734" y1="173.4973" x2="355.0117" y2="173.4973">
				<stop  offset="0" style="stop-color:#F2A403"/>
				<stop  offset="1" style="stop-color:#F2CF03"/>
			</linearGradient>
			<path class="st18" d="M336.9,186.4c-1.5,0-2.9-0.2-4.2-0.5c-3.8-1-6.7-3.5-7.8-6.8c-1.1-3.2-0.6-6.7,1.6-10.2
				c1-1.5,2.2-2.9,3.6-4c0.7-0.6,1.5-1.1,2.3-1.6c1-0.6,1.8-1,2.5-1.3c1.8-0.8,3.6-1.2,5.4-1.4c0.5-0.1,1.1-0.1,1.7-0.1
				c0.4,0,0.7,0,1.1,0c0.9,0,1.8,0.1,2.6,0.3c3.8,0.8,6.8,2.9,8.3,6c1.6,3.2,1.3,6.9-0.6,10.4c-0.5,0.8-1,1.6-1.6,2.4
				c-0.6,0.7-1.2,1.3-2.1,2.1c-1.5,1.3-3.3,2.4-5.3,3.2c-1.1,0.5-2.1,0.8-3,1c-1,0.2-2,0.4-3,0.5
				C337.9,186.4,337.4,186.4,336.9,186.4L336.9,186.4z M342.2,166.8c-1.6,0-3.3,0.4-4.9,1c-2.4,1.1-4.3,2.5-5.4,4.2
				c-1.2,1.7-1.6,3.5-1,4.9c0.5,1.5,2,2.5,4.1,3c0.7,0.2,1.5,0.2,2.3,0.2c1.7,0,3.3-0.4,4.8-1c2.4-1,4.4-2.6,5.6-4.4
				c1.1-1.7,1.4-3.6,0.7-5c-0.8-1.7-2.7-2.4-4.2-2.7C343.5,166.9,342.8,166.8,342.2,166.8z"/>
			<path d="M342,161.1c0.3,0,0.7,0,1,0c0.9,0,1.7,0.1,2.6,0.3c3.6,0.8,6.5,2.8,8,5.8c1.5,3,1.3,6.5-0.6,9.9c-0.4,0.8-1,1.6-1.6,2.3
				c-0.6,0.7-1.3,1.4-2,2c-1.5,1.2-3.2,2.3-5.1,3.1c-1,0.4-1.9,0.8-2.9,1c-1,0.2-2,0.4-2.9,0.4c-0.5,0-1,0.1-1.5,0.1
				c-1.4,0-2.8-0.2-4.1-0.5c-3.8-1-6.4-3.4-7.5-6.5c-1.1-3.2-0.5-6.5,1.5-9.7c0.9-1.5,2.1-2.8,3.5-3.9c0.7-0.6,1.4-1.1,2.2-1.5
				c0.8-0.5,1.6-0.9,2.5-1.3c1.7-0.7,3.5-1.2,5.3-1.4C340.9,161.1,341.4,161.1,342,161.1 M337.1,180.6c1.6,0,3.4-0.3,5-1.1
				c2.6-1.1,4.6-2.8,5.8-4.6c1.2-1.8,1.5-3.9,0.8-5.5c-0.8-1.6-2.5-2.6-4.6-3c-0.6-0.1-1.3-0.2-2-0.2c-1.6,0-3.4,0.3-5.1,1.1
				c-2.4,1.1-4.4,2.6-5.6,4.3c-1.2,1.8-1.7,3.7-1.1,5.4c0.6,1.7,2.3,2.8,4.4,3.3C335.5,180.5,336.3,180.6,337.1,180.6 M342,160.1
				c-0.6,0-1.2,0-1.7,0.1c-1.9,0.2-3.8,0.7-5.6,1.4c-0.8,0.3-1.6,0.7-2.6,1.3c-0.8,0.5-1.6,1-2.4,1.6c-1.5,1.2-2.7,2.6-3.7,4.1
				c-2.2,3.6-2.8,7.2-1.6,10.6c1.2,3.5,4.2,6.1,8.2,7.2c1.4,0.4,2.8,0.5,4.3,0.5c0.5,0,1,0,1.5-0.1c1-0.1,2.1-0.2,3.1-0.5
				c0.9-0.2,1.9-0.6,3.1-1c2-0.9,3.8-1.9,5.4-3.3c0.9-0.8,1.6-1.4,2.2-2.1c0.6-0.8,1.2-1.6,1.7-2.4c2.1-3.7,2.3-7.5,0.7-10.9
				c-1.6-3.2-4.7-5.5-8.7-6.3c-0.9-0.2-1.8-0.3-2.7-0.3C342.7,160.1,342.3,160.1,342,160.1L342,160.1z M337.1,179.6
				c-0.7,0-1.5-0.1-2.2-0.2c-1.9-0.4-3.2-1.4-3.7-2.7c-0.5-1.3-0.1-2.9,1-4.5c1.1-1.6,2.9-3,5.2-4c1.5-0.6,3.1-1,4.7-1
				c0.6,0,1.2,0.1,1.8,0.2c1.4,0.3,3.1,0.9,3.9,2.4c0.6,1.3,0.3,2.9-0.7,4.5c-1.1,1.7-3.1,3.3-5.4,4.3
				C340.3,179.3,338.7,179.6,337.1,179.6L337.1,179.6z"/>
		</g>
		<linearGradient id="SVGID_20_" gradientUnits="userSpaceOnUse" x1="341.6639" y1="168.9648" x2="356.6518" y2="168.9648">
			<stop  offset="0" style="stop-color:#F2A403"/>
			<stop  offset="1" style="stop-color:#F2CF03"/>
		</linearGradient>
		<path class="st19" d="M356.7,168.6c0,0-2.8,1.4-5.6,2.7c-2.8,1.4-5.7,2.6-5.7,2.6c-1.4,0.6-2.9,0-3.5-1.4c-0.6-1.3,0-2.9,1.4-3.5
			c0,0,2.8-1.2,5.5-2.5c2.7-1.3,5.5-2.6,5.5-2.6"/>
		<linearGradient id="SVGID_21_" gradientUnits="userSpaceOnUse" x1="322.9217" y1="177.3856" x2="337.3308" y2="177.3856">
			<stop  offset="0" style="stop-color:#F2A403"/>
			<stop  offset="1" style="stop-color:#F2CF03"/>
		</linearGradient>
		<path class="st20" d="M322.9,176.9c0,0,0.7-0.2,1.7-0.6c0.5-0.2,1.1-0.4,1.7-0.6c0.6-0.2,1.3-0.5,2-0.7c2.7-1,5.4-2,5.4-2
			c1.4-0.5,2.9,0.2,3.5,1.5s-0.1,2.9-1.5,3.4c0,0-2.7,1-5.5,2.1c-0.7,0.3-1.4,0.5-2,0.8c-0.7,0.2-1.3,0.4-1.8,0.6
			c-1,0.3-1.7,0.6-1.7,0.6"/>
	</g>
	<g>
		<g>
			<linearGradient id="SVGID_22_" gradientUnits="userSpaceOnUse" x1="291.4728" y1="184.4548" x2="322.7189" y2="184.4548">
				<stop  offset="0" style="stop-color:#F2A403"/>
				<stop  offset="1" style="stop-color:#F2CF03"/>
			</linearGradient>
			<path class="st21" d="M305.2,197.1c-2.4,0-4.6-0.4-6.6-1.2c-3.7-1.5-6.2-4.4-6.9-7.9c-0.7-3.4,0.3-6.8,2.9-9.8
				c2.3-2.7,5.5-4.7,9.3-5.7c1.6-0.5,3.3-0.7,5-0.7c2.1,0,4.1,0.4,5.9,1.1c3.7,1.3,6.3,3.8,7.4,7.1c1.1,3.4,0.4,7-2.1,10.2
				c-2.3,2.9-5.8,5.1-9.9,6.3C308.6,196.9,306.9,197.1,305.2,197.1C305.2,197.1,305.2,197.1,305.2,197.1z M309,178.1
				c-1.2,0-2.3,0.2-3.5,0.5c-4.8,1.2-8.3,4.9-7.7,8.1c0.5,2.4,3.6,4.1,7.4,4.1c1.1,0,2.2-0.1,3.4-0.4c3.2-0.9,5.9-2.8,7.1-5.1
				c0.6-1.2,0.8-2.4,0.5-3.4C315.5,179.6,312.6,178.1,309,178.1z"/>
			<path d="M308.9,172.3c2,0,3.9,0.3,5.7,1c3.5,1.2,6.1,3.6,7.1,6.8s0.4,6.6-2,9.8c-2.2,2.8-5.7,5-9.6,6.1c-1.7,0.4-3.3,0.6-5,0.6
				c-2.3,0-4.5-0.4-6.4-1.2c-3.6-1.5-5.9-4.3-6.6-7.5c-0.7-3.3,0.4-6.6,2.8-9.4c2.2-2.7,5.4-4.6,9.1-5.5
				C305.7,172.5,307.3,172.3,308.9,172.3 M305.3,191.3c1.1,0,2.3-0.1,3.5-0.4c5.4-1.5,9-5.7,7.9-9.1c-0.8-2.6-4-4.2-7.6-4.2
				c-1.2,0-2.4,0.2-3.6,0.5c-5.1,1.3-8.8,5.2-8,8.7C298,189.5,301.3,191.3,305.3,191.3 M308.9,171.3c-1.7,0-3.4,0.2-5.1,0.7
				c-3.9,1-7.2,3-9.6,5.8c-2.7,3.2-3.7,6.7-3,10.3c0.7,3.6,3.3,6.6,7.1,8.2c2.1,0.8,4.4,1.3,6.8,1.3c1.7,0,3.5-0.2,5.2-0.7
				c4.3-1.2,7.9-3.5,10.2-6.5c2.6-3.4,3.3-7.2,2.2-10.7c-1.1-3.4-3.9-6.1-7.7-7.4C313.1,171.7,311,171.3,308.9,171.3L308.9,171.3z
				 M305.3,190.3c-3.6,0-6.4-1.5-6.9-3.7c-0.6-2.9,2.7-6.4,7.3-7.5c1.1-0.3,2.3-0.5,3.4-0.5c3.3,0,6,1.4,6.7,3.5
				c0.4,1.2,0,2.3-0.4,3c-1.1,2.1-3.7,4-6.8,4.8C307.4,190.2,306.4,190.3,305.3,190.3L305.3,190.3z"/>
		</g>
		<linearGradient id="SVGID_23_" gradientUnits="userSpaceOnUse" x1="309.3654" y1="181.3279" x2="324.6188" y2="181.3279">
			<stop  offset="0" style="stop-color:#F2A403"/>
			<stop  offset="1" style="stop-color:#F2CF03"/>
		</linearGradient>
		<path class="st22" d="M324.6,181.9c0,0-3,1-5.9,2c-1.5,0.5-3,0.9-4.1,1.2c-1.1,0.3-1.9,0.5-1.9,0.5c-1.4,0.4-2.9-0.4-3.3-1.8
			c-0.4-1.4,0.4-2.9,1.8-3.3c0,0,0.7-0.2,1.8-0.5c1.1-0.3,2.6-0.7,4-1.2c2.9-1,5.8-1.9,5.8-1.9"/>
		<linearGradient id="SVGID_24_" gradientUnits="userSpaceOnUse" x1="290.0693" y1="186.9608" x2="304.5595" y2="186.9608">
			<stop  offset="0" style="stop-color:#F2A403"/>
			<stop  offset="1" style="stop-color:#F2CF03"/>
		</linearGradient>
		<path class="st23" d="M290.1,185.6c0,0,0.7-0.1,1.8-0.3c1.1-0.2,2.5-0.5,3.9-0.8c2.8-0.7,5.6-1.3,5.6-1.3c1.4-0.3,2.9,0.5,3.2,2
			c0.4,1.4-0.5,2.8-2,3.2c0,0-2.8,0.7-5.7,1.4c-1.4,0.3-2.9,0.6-3.9,0.8c-1.1,0.2-1.8,0.3-1.8,0.3"/>
	</g>
	<g>
		<g>
			<linearGradient id="SVGID_25_" gradientUnits="userSpaceOnUse" x1="257.6075" y1="190.9978" x2="289.1375" y2="190.9978">
				<stop  offset="0" style="stop-color:#F2A403"/>
				<stop  offset="1" style="stop-color:#F2CF03"/>
			</linearGradient>
			<path class="st24" d="M272.5,203.5c-3.4,0-6.6-0.8-9.1-2.2c-3.5-2.1-5.5-5.2-5.8-8.7c-0.2-3.4,1.3-6.7,4.2-9.4
				c2.6-2.4,6.2-4,10-4.4c0.9-0.1,1.8-0.2,2.7-0.2c2.9,0,5.7,0.7,8,2c3.5,1.9,5.8,4.6,6.4,8c0.7,3.5-0.6,7.1-3.4,9.9
				c-2.7,2.6-6.4,4.3-10.6,4.9C274.1,203.4,273.3,203.5,272.5,203.5z M274.5,184.8c-0.6,0-1.3,0-1.9,0.1c-5,0.5-8.9,3.8-8.7,7.1
				c0.2,2.9,4,5.1,8.6,5.1c0.5,0,1,0,1.6-0.1c3.2-0.5,6.2-2,7.7-4.1c0.8-1.1,1.1-2.3,0.9-3.3C282.3,186.9,278.7,184.8,274.5,184.8z"
				/>
			<path d="M274.5,179c2.8,0,5.5,0.6,7.8,1.9c3.3,1.7,5.5,4.4,6.1,7.7c0.6,3.3-0.5,6.7-3.3,9.4c-2.6,2.5-6.3,4.2-10.3,4.8
				c-0.8,0.1-1.6,0.1-2.3,0.1c-3.3,0-6.4-0.7-8.9-2.2c-3.4-2-5.3-5-5.5-8.3c-0.2-3.3,1.2-6.5,4-9c2.6-2.4,6-3.9,9.7-4.3
				C272.8,179.1,273.6,179,274.5,179 M272.6,197.7c0.5,0,1.1,0,1.6-0.1c5.5-0.8,9.6-4.5,9-8c-0.5-3.1-4.3-5.2-8.7-5.2
				c-0.6,0-1.3,0-2,0.1c-5.2,0.6-9.4,4-9.1,7.6C263.7,195.3,267.7,197.7,272.6,197.7 M274.5,178c-0.9,0-1.9,0.1-2.8,0.2
				c-3.9,0.4-7.5,2-10.3,4.5c-3,2.7-4.6,6.2-4.3,9.8c0.3,3.7,2.4,6.9,6,9.1c2.7,1.5,5.9,2.3,9.4,2.3c0.8,0,1.6,0,2.4-0.1
				c4.3-0.6,8.2-2.4,10.9-5.1c2.9-2.9,4.2-6.7,3.6-10.3c-0.7-3.5-3-6.4-6.7-8.4C280.4,178.7,277.5,178,274.5,178L274.5,178z
				 M272.6,196.7c-4.3,0-7.9-2-8.1-4.7c-0.2-3,3.6-6,8.2-6.5c0.6-0.1,1.3-0.1,1.9-0.1c4,0,7.3,1.9,7.7,4.4c0.2,1.2-0.3,2.3-0.8,3
				c-1.4,2-4.2,3.4-7.3,3.9C273.6,196.6,273.1,196.7,272.6,196.7L272.6,196.7z"/>
		</g>
		<linearGradient id="SVGID_26_" gradientUnits="userSpaceOnUse" x1="275.7882" y1="189.2752" x2="291.0808" y2="189.2752">
			<stop  offset="0" style="stop-color:#F2A403"/>
			<stop  offset="1" style="stop-color:#F2CF03"/>
		</linearGradient>
		<path class="st25" d="M291.1,190.8c0,0-3.1,0.6-6.1,1.2c-3.1,0.5-6.1,0.9-6.1,0.9c-1.5,0.2-2.8-0.8-3-2.2c-0.2-1.4,0.8-2.8,2.3-3
			c0,0,3-0.5,6-0.9c3-0.6,6-1.1,6-1.1"/>
		<linearGradient id="SVGID_27_" gradientUnits="userSpaceOnUse" x1="256.3464" y1="192.0827" x2="270.7168" y2="192.0827">
			<stop  offset="0" style="stop-color:#F2A403"/>
			<stop  offset="1" style="stop-color:#F2CF03"/>
		</linearGradient>
		<path class="st26" d="M256.3,189.9c0,0,2.9-0.2,5.7-0.4c2.8-0.3,5.7-0.6,5.7-0.6c1.4-0.2,2.8,0.9,2.9,2.3c0.2,1.5-0.9,2.8-2.4,2.9
			c0,0-2.9,0.3-5.8,0.6c-2.9,0.2-5.8,0.4-5.8,0.4"/>
	</g>
	<g>
		<g>
			<linearGradient id="SVGID_28_" gradientUnits="userSpaceOnUse" x1="223.2738" y1="193.1667" x2="254.8948" y2="193.1667">
				<stop  offset="0" style="stop-color:#F2A403"/>
				<stop  offset="1" style="stop-color:#F2CF03"/>
			</linearGradient>
			<path class="st27" d="M239.1,205.6c-4.2-0.1-8.2-1.3-11.1-3.6c-3.2-2.4-4.8-5.8-4.6-9.4c0.2-3.4,2.1-6.5,5.3-8.8
				c2.8-2,6.4-3.1,10.1-3.1l0.4,0l0.3,0c3.8,0,7.3,1.1,10.2,3.1c3.3,2.3,5.1,5.4,5.3,8.8c0.2,3.5-1.5,7-4.7,9.3
				C247.3,204.2,243.3,205.5,239.1,205.6L239.1,205.6L239.1,205.6z M238.8,187.1c-4.8,0-9,2.7-9.2,5.9c0,1.1,0.4,2.2,1.3,3.2
				c1.7,1.8,4.9,3,8.1,3.1c3.3-0.1,6.4-1.2,8.1-3.1c0.9-1,1.4-2.1,1.4-3.2c-0.1-3.2-4.4-5.9-9.2-5.9L238.8,187.1z"/>
			<path d="M238.7,181.3c0.1,0,0.3,0,0.4,0c0.1,0,0.2,0,0.3,0c3.7,0,7.1,1.1,9.9,3c3.1,2.2,4.9,5.1,5.1,8.4c0.2,3.3-1.4,6.6-4.5,8.9
				c-2.9,2.1-6.7,3.4-10.9,3.4c-4.1-0.1-8-1.3-10.8-3.5c-3.1-2.4-4.6-5.6-4.4-8.9c0.2-3.3,2-6.3,5.1-8.4
				C231.6,182.3,235.1,181.3,238.7,181.3 M239.1,199.8c5.6-0.1,10.1-3.2,10-6.8c-0.1-3.5-4.6-6.4-9.7-6.4c-0.1,0-0.2,0-0.2,0
				c-0.1,0-0.2,0-0.3,0c-5.1,0-9.5,2.9-9.7,6.4C229,196.5,233.5,199.7,239.1,199.8 M238.7,180.3c-3.8,0-7.5,1.1-10.4,3.2
				c-3.4,2.3-5.3,5.6-5.5,9.1c-0.2,3.7,1.5,7.2,4.8,9.8c3,2.3,7.1,3.6,11.4,3.7c4.4-0.1,8.4-1.4,11.5-3.6c3.3-2.5,5.1-6,4.9-9.8
				c-0.2-3.6-2.1-6.7-5.5-9.2c-2.9-2.1-6.5-3.2-10.4-3.2c-0.1,0-0.2,0-0.3,0C239,180.3,238.8,180.3,238.7,180.3L238.7,180.3z
				 M239.1,198.8c-3.1-0.1-6.1-1.2-7.8-3c-0.6-0.6-1.3-1.6-1.2-2.8c0.1-2.9,4.1-5.4,8.7-5.4c0.1,0,0.2,0,0.3,0l0.3,0
				c4.6,0,8.6,2.5,8.7,5.4c0.1,1.2-0.6,2.2-1.2,2.8C245.2,197.6,242.2,198.7,239.1,198.8L239.1,198.8z"/>
		</g>
		<linearGradient id="SVGID_29_" gradientUnits="userSpaceOnUse" x1="241.5564" y1="192.8248" x2="256.6799" y2="192.8248">
			<stop  offset="0" style="stop-color:#F2A403"/>
			<stop  offset="1" style="stop-color:#F2CF03"/>
		</linearGradient>
		<path class="st28" d="M256.7,195.2c0,0-0.8,0-1.9,0.1c-1.2,0.1-2.7,0.2-4.3,0.2c-3.1,0.1-6.2,0.1-6.2,0.1c-1.5,0-2.7-1.1-2.7-2.6
			c0-1.5,1.2-2.7,2.6-2.7c0,0,3-0.1,6.1-0.1c1.5,0,3-0.2,4.2-0.2c1.1-0.1,1.9-0.1,1.9-0.1"/>
		<linearGradient id="SVGID_30_" gradientUnits="userSpaceOnUse" x1="222.0056" y1="192.8171" x2="236.4035" y2="192.8171">
			<stop  offset="0" style="stop-color:#F2A403"/>
			<stop  offset="1" style="stop-color:#F2CF03"/>
		</linearGradient>
		<path class="st29" d="M222.3,189.9c0,0,2.9,0.2,5.7,0.4c2.9,0.1,5.7,0.1,5.7,0.1c1.5,0,2.6,1.2,2.6,2.7s-1.2,2.6-2.7,2.6
			c0,0-2.9-0.1-5.8-0.1c-2.9-0.2-5.8-0.4-5.8-0.4"/>
	</g>
	<g>
		<g>
			<linearGradient id="SVGID_31_" gradientUnits="userSpaceOnUse" x1="189.0323" y1="190.9324" x2="220.5636" y2="190.9324">
				<stop  offset="0" style="stop-color:#F2A403"/>
				<stop  offset="1" style="stop-color:#F2CF03"/>
			</linearGradient>
			<path class="st30" d="M205.7,203.4c-0.8,0-1.6,0-2.4-0.1c-4.2-0.6-8-2.4-10.6-4.9c-2.9-2.9-4.1-6.4-3.4-9.9
				c0.6-3.4,2.9-6.2,6.4-8c2.4-1.3,5.1-1.9,8-1.9c0.9,0,1.9,0.1,2.8,0.2c3.8,0.4,7.4,2,10,4.4c3,2.7,4.4,5.9,4.2,9.4
				c-0.2,3.5-2.4,6.7-5.8,8.7C212.2,202.6,209,203.4,205.7,203.4L205.7,203.4z M203.6,184.8c-4.2,0-7.7,2.1-8.2,4.8
				c-0.2,1.1,0.1,2.2,0.9,3.3c1.5,2.1,4.4,3.6,7.7,4.1c0.5,0.1,1,0.1,1.6,0.1c4.6,0,8.4-2.2,8.6-5.1c0.3-3.3-3.7-6.5-8.6-7.1
				C204.9,184.8,204.3,184.8,203.6,184.8z"/>
			<path d="M203.6,179c0.9,0,1.8,0.1,2.7,0.2c3.7,0.4,7.2,1.9,9.7,4.3c2.8,2.5,4.2,5.6,4,9c-0.2,3.3-2.2,6.3-5.5,8.3
				c-2.5,1.4-5.6,2.2-8.8,2.2c-0.8,0-1.6,0-2.4-0.1c-4.1-0.6-7.8-2.3-10.3-4.8c-2.8-2.8-3.9-6.2-3.3-9.4c0.6-3.3,2.8-6,6.1-7.7
				C198.2,179.6,200.8,179,203.6,179 M205.6,197.6c4.8,0,8.8-2.4,9.1-5.6c0.3-3.6-3.9-7-9.1-7.6c-0.7-0.1-1.4-0.2-2-0.2
				c-4.4,0-8.2,2.2-8.7,5.2c-0.6,3.5,3.5,7.2,9,8C204.5,197.6,205.1,197.6,205.6,197.6 M203.6,178c-2.9,0-5.8,0.7-8.2,2
				c-3.6,1.9-6,4.8-6.7,8.4c-0.7,3.7,0.6,7.3,3.5,10.3c2.7,2.6,6.6,4.4,10.9,5.1c0.9,0.1,1.7,0.1,2.5,0.1c3.5,0,6.7-0.8,9.3-2.3
				c3.6-2.1,5.8-5.4,6-9.1c0.3-3.6-1.2-7-4.3-9.8c-2.7-2.5-6.3-4.1-10.3-4.5C205.5,178,204.6,178,203.6,178L203.6,178z M205.6,196.6
				c-0.5,0-1,0-1.5-0.1c-3.1-0.5-5.9-2-7.3-3.9c-0.5-0.7-1-1.7-0.8-2.9c0.4-2.5,3.7-4.4,7.7-4.4c0.6,0,1.2,0,1.9,0.1
				c4.6,0.5,8.5,3.6,8.2,6.5C213.5,194.6,209.9,196.6,205.6,196.6L205.6,196.6z"/>
		</g>
		<linearGradient id="SVGID_32_" gradientUnits="userSpaceOnUse" x1="207.2461" y1="192.0446" x2="222.3391" y2="192.0446">
			<stop  offset="0" style="stop-color:#F2A403"/>
			<stop  offset="1" style="stop-color:#F2CF03"/>
		</linearGradient>
		<path class="st31" d="M222,195.2c0,0-3.1-0.2-6.2-0.4c-3.1-0.3-6.2-0.7-6.2-0.7c-1.5-0.2-2.5-1.5-2.4-2.9c0.2-1.5,1.5-2.5,2.9-2.3
			c0,0,3,0.3,6.1,0.6c3,0.2,6.1,0.4,6.1,0.4"/>
		<linearGradient id="SVGID_33_" gradientUnits="userSpaceOnUse" x1="187.6046" y1="189.2209" x2="202.1805" y2="189.2209">
			<stop  offset="0" style="stop-color:#F2A403"/>
			<stop  offset="1" style="stop-color:#F2CF03"/>
		</linearGradient>
		<path class="st32" d="M188.6,185.6c0,0,2.8,0.5,5.6,1.1c2.8,0.4,5.7,0.9,5.7,0.9c1.4,0.2,2.4,1.6,2.2,3c-0.2,1.4-1.6,2.4-3,2.2
			c0,0-2.9-0.4-5.8-0.9c-2.9-0.6-5.7-1.1-5.7-1.1"/>
	</g>
	<g>
		<g>
			<linearGradient id="SVGID_34_" gradientUnits="userSpaceOnUse" x1="155.4697" y1="184.3267" x2="186.7076" y2="184.3267">
				<stop  offset="0" style="stop-color:#F2A403"/>
				<stop  offset="1" style="stop-color:#F2CF03"/>
			</linearGradient>
			<path class="st33" d="M173,197c-1.7,0-3.4-0.2-5.1-0.7c-4.2-1.2-7.7-3.4-9.9-6.3c-2.4-3.3-3.2-6.9-2.1-10.2
				c1.1-3.3,3.7-5.8,7.4-7.1c1.9-0.7,3.9-1,5.9-1c1.7,0,3.4,0.2,5,0.7c3.9,1,7.1,3,9.3,5.7c1.3,1.6,2.2,3.1,2.6,4.7
				c0.5,1.7,0.6,3.4,0.3,5.1c-0.3,1.7-1.1,3.3-2.3,4.6c-1.2,1.4-2.8,2.5-4.6,3.2C177.6,196.6,175.3,197,173,197
				C173,197,173,197,173,197z M169.2,178c-3.6,0-6.4,1.5-7.2,3.8c-0.3,1-0.2,2.2,0.5,3.4c1.2,2.2,3.9,4.2,7.1,5.1
				c1.1,0.3,2.2,0.4,3.3,0.4c1.3,0,2.7-0.2,3.8-0.6c2-0.7,3.3-1.9,3.6-3.5c0.7-3.2-2.8-6.9-7.6-8.1C171.5,178.1,170.3,178,169.2,178
				z"/>
			<path d="M169.3,172.2c1.6,0,3.2,0.2,4.8,0.7c3.6,1,6.8,2.8,9,5.5c1.2,1.5,2.1,3,2.6,4.6c0.5,1.6,0.6,3.2,0.2,4.9
				c-0.3,1.6-1.1,3.1-2.2,4.4c-1.1,1.3-2.6,2.4-4.4,3.1c-1.9,0.8-4.1,1.2-6.4,1.2c-1.6,0-3.3-0.2-5-0.6c-4-1.1-7.4-3.3-9.6-6.1
				c-2.4-3.2-3-6.6-2-9.8c1.1-3.2,3.6-5.6,7.1-6.8C165.4,172.5,167.3,172.2,169.3,172.2 M172.8,191.2c1.5,0,2.8-0.2,4-0.7
				c2.1-0.7,3.6-2.1,3.9-3.8c0.8-3.5-2.9-7.4-8-8.7c-1.2-0.3-2.5-0.5-3.6-0.5c-3.7,0-6.8,1.6-7.6,4.2c-1.1,3.4,2.5,7.6,7.9,9.1
				C170.6,191,171.7,191.2,172.8,191.2 M169.3,171.2c-2.1,0-4.2,0.4-6.1,1.1c-3.8,1.3-6.6,4-7.7,7.4c-1.2,3.5-0.4,7.3,2.1,10.7
				c2.3,3,5.9,5.3,10.2,6.5c1.7,0.5,3.5,0.7,5.2,0.7c2.4,0,4.8-0.4,6.8-1.3c1.9-0.7,3.5-1.9,4.8-3.4c1.2-1.4,2-3,2.4-4.9
				c0.4-1.8,0.3-3.6-0.3-5.4c-0.5-1.7-1.4-3.3-2.7-4.9c-2.3-2.8-5.6-4.8-9.6-5.9C172.8,171.4,171.1,171.2,169.3,171.2L169.3,171.2z
				 M172.8,190.2c-1.1,0-2.1-0.1-3.2-0.4c-3-0.9-5.6-2.7-6.8-4.8c-0.4-0.7-0.8-1.9-0.4-3c0.7-2.1,3.3-3.5,6.7-3.5
				c1.1,0,2.3,0.2,3.4,0.5c4.6,1.2,7.9,4.6,7.3,7.6c-0.3,1.3-1.5,2.4-3.3,3.1C175.4,190,174.1,190.2,172.8,190.2L172.8,190.2z"/>
		</g>
		<linearGradient id="SVGID_35_" gradientUnits="userSpaceOnUse" x1="173.4182" y1="186.8776" x2="188.6161" y2="186.8776">
			<stop  offset="0" style="stop-color:#F2A403"/>
			<stop  offset="1" style="stop-color:#F2CF03"/>
		</linearGradient>
		<path class="st34" d="M187.6,190.8c0,0-0.8-0.1-1.9-0.4c-1.1-0.2-2.7-0.5-4.2-0.8c-3-0.7-6-1.4-6-1.4c-1.5-0.3-2.3-1.8-2-3.2
			c0.4-1.4,1.8-2.3,3.2-2c0,0,3,0.7,5.9,1.4c1.5,0.4,3,0.6,4.1,0.8c1.1,0.2,1.9,0.4,1.9,0.4"/>
		<linearGradient id="SVGID_36_" gradientUnits="userSpaceOnUse" x1="154.0666" y1="181.2278" x2="168.6238" y2="181.2278">
			<stop  offset="0" style="stop-color:#F2A403"/>
			<stop  offset="1" style="stop-color:#F2CF03"/>
		</linearGradient>
		<path class="st35" d="M155.8,176.9c0,0,2.7,0.9,5.4,1.8c1.4,0.5,2.7,0.8,3.8,1.1c1,0.3,1.7,0.5,1.7,0.5c1.4,0.4,2.2,1.9,1.8,3.3
			c-0.4,1.4-1.9,2.2-3.3,1.8c0,0-0.7-0.2-1.8-0.5c-1.1-0.3-2.5-0.7-3.8-1.2c-2.8-0.9-5.6-1.8-5.6-1.8"/>
	</g>
	<g>
		<g>
			<linearGradient id="SVGID_37_" gradientUnits="userSpaceOnUse" x1="123.1998" y1="173.2961" x2="153.9269" y2="173.2961">
				<stop  offset="0" style="stop-color:#F2A403"/>
				<stop  offset="1" style="stop-color:#F2CF03"/>
			</linearGradient>
			<path class="st36" d="M141.3,186.3c-0.5,0-1,0-1.5-0.1c-1.1-0.1-2.1-0.2-3-0.5c-1-0.3-2-0.6-3-1c-4.1-1.8-7.2-4.5-9-7.6
				c-2-3.5-2.2-7.2-0.6-10.4c1.5-3.1,4.5-5.2,8.3-6c1.1-0.2,2.3-0.3,3.5-0.3c2.5,0,5.1,0.5,7.3,1.5c0.9,0.4,1.7,0.8,2.5,1.3
				c0.9,0.6,1.7,1,2.3,1.6c1.4,1.2,2.7,2.5,3.6,4c1,1.6,1.7,3.4,2,5.1c0.3,1.7,0.1,3.5-0.4,5.1c-0.6,1.7-1.6,3.1-2.9,4.3
				c-1.3,1.2-3,2-5,2.5C144.2,186.1,142.8,186.3,141.3,186.3L141.3,186.3z M136,166.6c-0.6,0-1.3,0.1-1.9,0.2
				c-2.1,0.3-3.6,1.3-4.2,2.7c-0.7,1.4-0.4,3.2,0.7,5c1.2,1.8,3.2,3.4,5.6,4.4c1.4,0.6,2.6,0.9,3.7,1c0.4,0,0.8,0.1,1.2,0.1
				c0.8,0,1.5-0.1,2.2-0.2c2.1-0.4,3.5-1.5,4.1-3c0.5-1.5,0.2-3.2-1-4.9c-0.6-0.8-1.4-1.6-2.3-2.3c-1.2-0.9-2.1-1.5-3.1-1.9
				C139.4,167,137.7,166.6,136,166.6z"/>
			<path d="M136.1,160.8c2.4,0,4.8,0.5,7.1,1.5c0.9,0.4,1.7,0.8,2.5,1.3c0.8,0.5,1.5,1,2.2,1.5c1.4,1.1,2.6,2.4,3.5,3.9
				c1,1.6,1.6,3.3,1.9,4.9c0.3,1.6,0.1,3.3-0.4,4.9c-0.5,1.6-1.5,3-2.8,4.1c-1.3,1.1-2.9,1.9-4.7,2.4c-1.3,0.3-2.7,0.5-4.1,0.5
				c-0.5,0-1,0-1.5-0.1c-1-0.1-2-0.2-2.9-0.5c-1-0.3-1.9-0.6-2.9-1c-3.8-1.6-7-4.2-8.7-7.4c-1.9-3.4-2.1-6.9-0.6-9.9
				c1.5-3,4.4-5,8-5.8C133.8,160.9,134.9,160.8,136.1,160.8 M141.1,180.4c0.8,0,1.6-0.1,2.3-0.2c2.2-0.5,3.8-1.6,4.4-3.3
				c0.6-1.7,0.1-3.6-1.1-5.4c-0.6-0.9-1.4-1.7-2.4-2.4c-1-0.7-2-1.4-3.2-1.9c-1.7-0.7-3.5-1.1-5.1-1.1c-0.7,0-1.3,0.1-2,0.2
				c-2.1,0.4-3.8,1.3-4.6,3c-0.8,1.6-0.4,3.6,0.8,5.5c1.2,1.8,3.3,3.5,5.8,4.6c1.3,0.5,2.6,0.9,3.8,1
				C140.3,180.4,140.7,180.4,141.1,180.4 M136.1,159.8c-1.2,0-2.4,0.1-3.6,0.3c-4,0.8-7.1,3.1-8.7,6.3c-1.6,3.3-1.4,7.2,0.6,10.8
				c1.7,3.2,5,6,9.2,7.8c1,0.4,2,0.8,3,1.1c0.9,0.2,2,0.4,3.1,0.5c0.5,0,1,0.1,1.6,0.1c1.5,0,3-0.2,4.4-0.5c2-0.5,3.8-1.4,5.2-2.6
				c1.4-1.2,2.4-2.8,3-4.5c0.6-1.7,0.7-3.5,0.4-5.3c-0.3-1.8-1-3.6-2-5.3c-1-1.6-2.2-2.9-3.7-4.1c-0.6-0.5-1.4-1-2.3-1.6
				c-0.8-0.5-1.7-1-2.6-1.3C141.3,160.4,138.7,159.8,136.1,159.8L136.1,159.8z M141.1,179.4c-0.4,0-0.7,0-1.1-0.1
				c-1-0.1-2.2-0.4-3.5-1c-2.3-1-4.2-2.5-5.4-4.3c-1-1.6-1.3-3.3-0.7-4.5c0.6-1.2,1.9-2.1,3.8-2.4c0.6-0.1,1.2-0.2,1.8-0.2
				c1.6,0,3.2,0.3,4.7,1c1.2,0.5,2.3,1.2,3,1.8c0.9,0.7,1.6,1.4,2.2,2.2c1.1,1.6,1.4,3.2,1,4.5c-0.5,1.3-1.8,2.2-3.7,2.7
				C142.6,179.4,141.8,179.4,141.1,179.4L141.1,179.4z"/>
		</g>
		<linearGradient id="SVGID_38_" gradientUnits="userSpaceOnUse" x1="140.6801" y1="177.2599" x2="155.7637" y2="177.2599">
			<stop  offset="0" style="stop-color:#F2A403"/>
			<stop  offset="1" style="stop-color:#F2CF03"/>
		</linearGradient>
		<path class="st37" d="M154.1,181.9c0,0-0.7-0.2-1.8-0.6c-1.1-0.3-2.6-0.9-4-1.4c-2.9-1.1-5.8-2.2-5.8-2.2
			c-1.4-0.5-2.1-2.1-1.5-3.4c0.5-1.3,2.1-2,3.5-1.5c0,0,2.8,1.1,5.7,2.2c1.4,0.5,2.8,1.1,3.9,1.4c1.1,0.4,1.8,0.6,1.8,0.6"/>
		<linearGradient id="SVGID_39_" gradientUnits="userSpaceOnUse" x1="122.0336" y1="168.8201" x2="136.3575" y2="168.8201">
			<stop  offset="0" style="stop-color:#F2A403"/>
			<stop  offset="1" style="stop-color:#F2CF03"/>
		</linearGradient>
		<path class="st38" d="M124.4,163.8c0,0,2.6,1.2,5.2,2.5c1.3,0.6,2.6,1.3,3.5,1.7c1,0.4,1.6,0.7,1.6,0.7c1.3,0.6,2,2.1,1.4,3.5
			c-0.6,1.3-2.2,2-3.5,1.4c0,0-0.7-0.3-1.7-0.7c-1-0.5-2.3-1.1-3.6-1.7c-2.6-1.3-5.3-2.5-5.3-2.5"/>
	</g>
	<g>
		<g>
			<linearGradient id="SVGID_40_" gradientUnits="userSpaceOnUse" x1="92.9002" y1="157.7898" x2="122.9309" y2="157.7898">
				<stop  offset="0" style="stop-color:#F2A403"/>
				<stop  offset="1" style="stop-color:#F2CF03"/>
			</linearGradient>
			<path class="st39" d="M111.1,171.2c-1.3,0-2.6-0.1-3.8-0.4c-2-0.5-3.9-1.3-5.7-2.4c-3.5-2-6.4-5.3-7.8-8.9
				c-1.5-3.7-1.2-7.4,0.9-10.3c2-2.8,5.2-4.5,9.2-4.8c0.3,0,0.7,0,1,0c3.1,0,6.4,1,9.5,2.7c1.6,1,3.1,2.2,4.3,3.6
				c1.3,1.4,2.3,2.9,3,4.4c1.6,3.6,1.7,7.2,0.1,10.3c-1.6,3.1-4.7,5.1-8.7,5.6C112.4,171.2,111.8,171.2,111.1,171.2
				C111.1,171.2,111.1,171.2,111.1,171.2z M104.5,150.7c-2.1,0-3.7,0.8-4.6,2.1c-0.9,1.3-0.9,3.1,0,5c0.5,1,1.1,2,1.9,2.8
				c0.9,0.9,1.9,1.7,3,2.4c2.1,1.2,4.3,1.9,6.2,1.9c0.2,0,0.4,0,0.6,0c2.1-0.2,3.7-1,4.5-2.4c0.7-1.4,0.6-3.1-0.3-5
				c-1.1-2-2.7-3.8-4.7-5c-1.1-0.6-2.2-1.1-3.4-1.4c-1.2-0.3-2.2-0.5-3.1-0.5L104.5,150.7z"/>
			<path d="M104.9,144.9c3.1,0,6.3,1,9.3,2.7c1.6,1,3,2.1,4.2,3.5c1.2,1.3,2.2,2.7,2.9,4.3c1.5,3.4,1.6,6.9,0.1,9.9
				c-1.5,3-4.4,4.9-8.3,5.4c-0.6,0.1-1.2,0.1-1.9,0.1c-1.2,0-2.5-0.1-3.7-0.4c-1.9-0.5-3.8-1.3-5.5-2.3c-3.6-2.1-6.3-5.3-7.6-8.6
				c-1.4-3.6-1.1-7.1,0.8-9.9c1.9-2.7,5-4.3,8.8-4.5C104.2,144.9,104.5,144.9,104.9,144.9 M111.1,165.4c0.2,0,0.5,0,0.7,0
				c2.2-0.2,4-1.1,4.9-2.6c0.9-1.6,0.6-3.6-0.3-5.4c-1-1.9-2.6-3.8-4.9-5.2c-1.1-0.7-2.3-1.2-3.5-1.5c-1.1-0.3-2.2-0.5-3.2-0.5
				c-0.1,0-0.1,0-0.2,0c-2.1,0-4,0.8-5,2.3s-0.9,3.5,0,5.5c0.5,1,1.1,2.1,2,3c0.9,0.9,1.9,1.8,3.1,2.5
				C106.7,164.7,109,165.4,111.1,165.4 M104.9,143.9c-0.3,0-0.7,0-1,0c-4.1,0.3-7.5,2.1-9.5,5c-2.1,3.1-2.5,6.9-0.9,10.8
				c1.4,3.7,4.4,7,8,9.1c1.8,1.1,3.8,1.9,5.8,2.4c1.3,0.3,2.6,0.5,4,0.5c0.7,0,1.3,0,2-0.1c4.2-0.5,7.4-2.6,9.1-5.9
				c1.6-3.2,1.6-7-0.1-10.8c-0.7-1.6-1.8-3.1-3.1-4.6c-1.3-1.4-2.7-2.7-4.4-3.7C111.4,144.9,108,143.9,104.9,143.9L104.9,143.9z
				 M111.1,164.4c-1.8,0-4-0.7-6-1.8c-1.1-0.6-2.1-1.4-2.9-2.3c-0.7-0.8-1.3-1.7-1.8-2.7c-0.8-1.8-0.8-3.4,0-4.6
				c0.8-1.1,2.3-1.8,4.2-1.8l0.2,0c0,0,0,0,0,0c0.9,0,1.8,0.1,2.9,0.4c1.1,0.3,2.2,0.7,3.2,1.4c1.9,1.1,3.5,2.8,4.5,4.8
				c0.9,1.7,1,3.3,0.3,4.5c-0.7,1.2-2.1,2-4.1,2.1C111.5,164.4,111.3,164.4,111.1,164.4L111.1,164.4z"/>
		</g>
		<linearGradient id="SVGID_41_" gradientUnits="userSpaceOnUse" x1="109.7369" y1="163.1451" x2="124.4158" y2="163.1451">
			<stop  offset="0" style="stop-color:#F2A403"/>
			<stop  offset="1" style="stop-color:#F2CF03"/>
		</linearGradient>
		<path class="st40" d="M122,168.6c0,0-0.2-0.1-0.5-0.2c-0.3-0.1-0.7-0.4-1.3-0.6c-1-0.6-2.4-1.3-3.8-2c-1.4-0.7-2.7-1.5-3.8-2
			c-1-0.5-1.7-1-1.7-1c-1.3-0.8-1.7-2.4-1-3.7c0.7-1.3,2.4-1.7,3.6-0.9c0,0,0.6,0.4,1.7,0.9c1,0.5,2.3,1.3,3.7,2
			c1.3,0.7,2.7,1.4,3.7,2c0.5,0.3,0.9,0.5,1.2,0.6c0.3,0.1,0.5,0.2,0.5,0.2"/>
		<linearGradient id="SVGID_42_" gradientUnits="userSpaceOnUse" x1="92.2748" y1="151.995" x2="106.0623" y2="151.995">
			<stop  offset="0" style="stop-color:#F2A403"/>
			<stop  offset="1" style="stop-color:#F2CF03"/>
		</linearGradient>
		<path class="st41" d="M95.3,146.4c0,0,0.6,0.4,1.4,1.1c0.9,0.6,2.1,1.4,3.3,2.2c2.4,1.6,4.8,3.1,4.8,3.1c1.2,0.8,1.6,2.4,0.9,3.6
			c-0.8,1.2-2.4,1.7-3.7,0.8c0,0-2.4-1.6-4.9-3.2c-1.2-0.8-2.5-1.6-3.3-2.2c-0.9-0.6-1.5-1.1-1.5-1.1"/>
	</g>
	<g>
		<g>
			<linearGradient id="SVGID_43_" gradientUnits="userSpaceOnUse" x1="65.4121" y1="137.928" x2="94.4779" y2="137.928">
				<stop  offset="0" style="stop-color:#F2A403"/>
				<stop  offset="1" style="stop-color:#F2CF03"/>
			</linearGradient>
			<path class="st42" d="M83,151.8c-3.6-0.1-7.5-1.7-10.9-4.4c-3.3-2.9-5.5-6.4-6.3-10c-0.8-4,0.1-7.6,2.6-10.1c2-2.1,5-3.3,8.2-3.3
				c0.5,0,1,0,1.6,0.1c3.6,0.3,7.1,1.8,9.9,4.3c2.9,2.3,5,5.5,6,9c1.1,3.7,0.6,7.3-1.4,10.1c-2,2.8-5.3,4.3-9.2,4.3L83,151.8z
				 M76.6,130.2c-1.6,0-2.9,0.5-3.8,1.4c-0.7,0.8-1.1,1.9-1,3.3c0.1,2.5,1.8,5.5,4.3,7.6c2.3,1.8,5,2.9,7.4,2.9
				c1.7,0,3.1-0.6,3.9-1.7c2-2.6,0.3-7.6-3.5-10.6C81.7,131.4,79,130.2,76.6,130.2z"/>
			<path d="M76.5,124.5c0.5,0,1,0,1.5,0.1c3.4,0.3,6.8,1.7,9.6,4.2c2.9,2.3,4.9,5.4,5.8,8.8c1,3.5,0.6,7-1.4,9.7
				c-1.9,2.6-5,4.1-8.8,4.1c-0.1,0-0.2,0-0.3,0c-3.6-0.1-7.4-1.7-10.6-4.3c-3.1-2.7-5.4-6.2-6.2-9.7c-0.8-3.9,0.1-7.3,2.4-9.7
				C70.6,125.6,73.4,124.5,76.5,124.5 M83.4,146c1.8,0,3.4-0.6,4.3-1.9c2.1-2.9,0.5-8-3.6-11.3c-2.3-2-5.1-3.1-7.6-3.1
				c-1.7,0-3.2,0.5-4.2,1.6c-2.4,2.6-1,8,3.3,11.6C78.2,144.9,81,146,83.4,146 M76.5,123.5c-3.4,0-6.4,1.2-8.5,3.4
				c-2.6,2.7-3.5,6.4-2.7,10.6c0.8,3.7,3.1,7.4,6.5,10.3c3.6,2.8,7.5,4.4,11.3,4.6c0.1,0,0.3,0,0.4,0c4.1,0,7.5-1.6,9.6-4.5
				c2.1-2.9,2.6-6.7,1.5-10.6c-1-3.6-3.2-6.9-6.2-9.3c-2.9-2.5-6.5-4.1-10.2-4.4C77.5,123.5,77,123.5,76.5,123.5L76.5,123.5z
				 M83.4,145c-2.2,0-4.9-1-7.1-2.8c-2.4-2.1-3.9-4.9-4.1-7.3c0-0.8,0.1-2,0.9-2.9c1-1,2.4-1.3,3.4-1.3c2.3,0,4.9,1.1,6.9,2.8
				c3.6,2.9,5.2,7.5,3.4,9.9C86.3,144.5,85,145,83.4,145L83.4,145z"/>
		</g>
		<linearGradient id="SVGID_44_" gradientUnits="userSpaceOnUse" x1="81.3125" y1="144.5635" x2="95.3338" y2="144.5635">
			<stop  offset="0" style="stop-color:#F2A403"/>
			<stop  offset="1" style="stop-color:#F2CF03"/>
		</linearGradient>
		<path class="st43" d="M92.3,150.7c0,0-2.5-1.8-5-3.7c-1.3-0.9-2.5-1.9-3.4-2.6c-0.9-0.7-1.5-1.2-1.5-1.2c-1.2-0.9-1.4-2.6-0.4-3.7
			c0.9-1.1,2.6-1.3,3.7-0.4c0,0,0.6,0.5,1.5,1.2c0.9,0.7,2.1,1.7,3.3,2.6c2.5,1.8,4.9,3.6,4.9,3.6"/>
		<linearGradient id="SVGID_45_" gradientUnits="userSpaceOnUse" x1="65.6119" y1="130.8213" x2="78.589" y2="130.8213">
			<stop  offset="0" style="stop-color:#F2A403"/>
			<stop  offset="1" style="stop-color:#F2CF03"/>
		</linearGradient>
		<path class="st44" d="M69.3,124.6c0,0,2.1,2,4.1,4c1,1,2.1,1.9,2.9,2.6c0.8,0.7,1.3,1.2,1.3,1.2c1.1,1,1.2,2.6,0.3,3.7
			s-2.6,1.2-3.8,0.2c0,0-0.6-0.5-1.4-1.2c-0.8-0.7-2-1.7-3-2.7c-2.1-2-4.2-4.1-4.2-4.1"/>
	</g>
	<g>
		<g>
			<linearGradient id="SVGID_46_" gradientUnits="userSpaceOnUse" x1="41.5956" y1="113.7915" x2="69.4923" y2="113.7915">
				<stop  offset="0" style="stop-color:#F2A403"/>
				<stop  offset="1" style="stop-color:#F2CF03"/>
			</linearGradient>
			<path class="st45" d="M59,128.3c-0.9,0-1.8-0.1-2.8-0.3c-1.8-0.4-3.6-1.1-5.4-2.2c-1.5-0.9-3-2.2-4.7-4.1
				c-1.5-1.7-2.6-3.5-3.3-5.3c-0.8-1.9-1.2-3.8-1.3-5.7c-0.2-4,1.3-7.4,4.2-9.5c1.8-1.3,4.1-2,6.5-2c1.2,0,2.4,0.2,3.7,0.5
				c1.7,0.5,3.3,1.2,4.8,2.3c1.6,1.1,3.1,2.3,4.2,3.6c1.3,1.5,2.2,3.2,2.9,4.7c0.8,1.7,1.3,3.4,1.4,5.2c0.2,1.9,0,3.7-0.5,5.4
				c-0.5,1.7-1.4,3.2-2.6,4.4c-1.2,1.2-2.8,2.1-4.5,2.6C60.9,128.2,60,128.3,59,128.3L59,128.3z M52.4,105.5c-1.1,0-2,0.3-2.7,0.8
				c-0.9,0.7-1.5,1.8-1.6,3.3c-0.3,2.6,0.9,5.7,2.9,8c0.9,1,1.8,1.9,2.9,2.6c0.9,0.6,1.9,1.1,3.1,1.4c0.6,0.2,1.3,0.2,1.9,0.2
				c1.3,0,2.3-0.4,3.1-1.1c1.1-1,1.6-2.8,1.3-4.8c-0.2-1.1-0.6-2.2-1-3.1c-0.5-1.1-1.1-2.1-1.9-3.1
				C57.9,107.2,54.9,105.5,52.4,105.5z"/>
			<path d="M52.3,99.8c1.2,0,2.4,0.2,3.6,0.5c1.7,0.4,3.2,1.2,4.7,2.2c1.5,1,2.9,2.1,4.1,3.6c1.2,1.4,2.1,3,2.9,4.6
				c0.7,1.6,1.2,3.3,1.4,5c0.2,1.9,0,3.6-0.5,5.2c-0.5,1.6-1.3,3-2.5,4.2c-1.2,1.2-2.6,2-4.3,2.4c-0.8,0.2-1.7,0.3-2.7,0.3
				c-0.9,0-1.7-0.1-2.7-0.3c-1.8-0.4-3.5-1.1-5.2-2.1c-1.7-1-3.2-2.4-4.6-4c-1.3-1.6-2.5-3.3-3.2-5.1c-0.7-1.8-1.1-3.7-1.2-5.5
				c-0.2-3.9,1.3-7.1,4-9.1C47.9,100.4,50.1,99.8,52.3,99.8 M58.8,122.4c1.4,0,2.6-0.4,3.4-1.2c1.3-1.2,1.7-3.2,1.4-5.3
				c-0.2-1.1-0.5-2.1-1-3.2c-0.5-1.1-1.2-2.2-2-3.2c-2.4-2.7-5.6-4.4-8.3-4.4c-1.1,0-2.2,0.3-3,0.9c-2.8,2.1-2.5,7.8,1.2,12
				c0.9,1.1,1.9,2,3,2.7c1,0.7,2.2,1.2,3.3,1.4C57.5,122.3,58.2,122.4,58.8,122.4 M52.3,98.8c-2.5,0-4.9,0.7-6.8,2.1
				c-3,2.2-4.6,5.7-4.4,9.9c0.1,1.9,0.5,3.9,1.3,5.8c0.8,1.8,1.9,3.6,3.4,5.4c1.7,2,3.2,3.3,4.8,4.2c1.8,1.1,3.7,1.8,5.5,2.2
				c1,0.2,1.9,0.3,2.9,0.3c1,0,2-0.1,2.9-0.4c1.8-0.5,3.4-1.4,4.7-2.7c1.3-1.3,2.2-2.8,2.7-4.6c0.6-1.7,0.7-3.6,0.5-5.6
				c-0.2-1.8-0.7-3.6-1.5-5.3c-0.7-1.5-1.7-3.3-3-4.8c-1.1-1.4-2.6-2.6-4.3-3.7c-1.5-1.1-3.2-1.8-5-2.3C54.9,99,53.6,98.8,52.3,98.8
				L52.3,98.8z M58.8,121.4c-0.6,0-1.1-0.1-1.8-0.2c-1.1-0.3-2.1-0.7-2.9-1.3c-1-0.7-1.9-1.5-2.8-2.5c-2-2.3-3.1-5.2-2.8-7.7
				c0.1-0.9,0.4-2.2,1.4-2.9c0.7-0.5,1.5-0.7,2.4-0.7c2.4,0,5.3,1.6,7.5,4.1c0.7,0.9,1.4,1.9,1.8,2.9c0.5,1.3,0.8,2.1,0.9,3
				c0.3,1.9-0.1,3.5-1.1,4.4C60.9,121,59.9,121.4,58.8,121.4L58.8,121.4z"/>
		</g>
		<linearGradient id="SVGID_47_" gradientUnits="userSpaceOnUse" x1="56.2933" y1="121.6673" x2="69.3251" y2="121.6673">
			<stop  offset="0" style="stop-color:#F2A403"/>
			<stop  offset="1" style="stop-color:#F2CF03"/>
		</linearGradient>
		<path class="st46" d="M65.6,128.4c0,0-0.6-0.5-1.4-1.4c-0.9-0.8-1.9-2-3-3.1c-2.1-2.3-4.3-4.5-4.3-4.5c-1-1.1-0.9-2.8,0.2-3.8
			c1.1-1,2.7-0.8,3.7,0.2c0,0,2.1,2.2,4.1,4.4c1,1.1,2.1,2.2,2.9,3c0.8,0.8,1.4,1.3,1.4,1.3"/>
		<linearGradient id="SVGID_48_" gradientUnits="userSpaceOnUse" x1="43.0411" y1="105.5638" x2="54.8161" y2="105.5638">
			<stop  offset="0" style="stop-color:#F2A403"/>
			<stop  offset="1" style="stop-color:#F2CF03"/>
		</linearGradient>
		<path class="st47" d="M47.4,98.8c0,0,0.4,0.6,1,1.5c0.6,0.9,1.5,2,2.4,3.1c1.7,2.3,3.5,4.5,3.5,4.5c0.9,1.1,0.8,2.8-0.3,3.7
			c-1.1,0.9-2.8,0.8-3.8-0.4c0,0-1.8-2.3-3.6-4.7c-0.9-1.2-1.8-2.3-2.4-3.2c-0.6-0.9-1-1.5-1-1.5"/>
	</g>
	<g>
		<g>
			<linearGradient id="SVGID_49_" gradientUnits="userSpaceOnUse" x1="22.4166" y1="85.7305" x2="49.0945" y2="85.7305">
				<stop  offset="0" style="stop-color:#F2A403"/>
				<stop  offset="1" style="stop-color:#F2CF03"/>
			</linearGradient>
			<path class="st48" d="M38.5,100.8c-1.5,0-3.1-0.3-4.7-0.9c-3.4-1.4-6.5-4.2-8.8-8C24,90,23.3,88,22.8,86
				c-0.5-2.3-0.5-4.1-0.2-5.8c0.7-4,2.8-7.1,6-8.5c1.4-0.6,2.9-1,4.4-1c1.9,0,3.9,0.5,5.8,1.5c1.8,1,3.2,2,4.4,3.1
				c1.3,1.3,2.4,2.7,3.3,4.4c1.9,3.1,2.8,6.8,2.5,10.4c-0.2,3.9-1.9,7.1-4.8,9.1C42.6,100.2,40.6,100.8,38.5,100.8z M33.1,77
				c-0.6,0-1.3,0.1-1.8,0.4c-0.7,0.3-1.3,0.9-1.7,1.7c-0.4,0.7-0.7,1.6-0.8,2.7c-0.2,2.2,0.4,4.7,1.7,7c2,3.4,5.3,5.7,8,5.7
				c0.8,0,1.5-0.2,2.2-0.6c2.7-1.8,2.9-6.9,0.4-11.1c-1.1-2.1-2.8-3.8-4.7-4.9c-0.9-0.5-1.8-0.8-2.7-0.8C33.5,77,33.3,77,33.1,77z"
				/>
			<path d="M33,71.2c1.9,0,3.8,0.5,5.6,1.4c1.5,0.8,3,1.7,4.2,3c1.3,1.2,2.4,2.6,3.2,4.3c1.9,3.1,2.7,6.7,2.4,10.1
				c-0.2,3.7-1.8,6.8-4.5,8.7c-1.6,1.1-3.5,1.7-5.5,1.7c-1.4,0-2.9-0.3-4.5-0.9c-3.3-1.4-6.4-4.2-8.6-7.8c-1-1.9-1.7-3.8-2.1-5.7
				c-0.4-1.9-0.6-3.8-0.2-5.6c0.6-3.9,2.7-6.8,5.7-8.2C30.2,71.5,31.6,71.2,33,71.2 M38.5,94.9c0.9,0,1.7-0.2,2.4-0.7
				c3-2,3.2-7.4,0.5-11.8c-1.2-2.3-3-4-4.9-5c-1-0.5-1.9-0.8-2.9-0.9c-0.2,0-0.4,0-0.6,0c-0.7,0-1.4,0.1-2,0.5
				c-0.8,0.4-1.4,1-1.9,1.9c-0.5,0.8-0.7,1.8-0.8,2.9c-0.2,2.2,0.4,4.8,1.7,7.3C32.3,92.7,35.7,94.9,38.5,94.9 M33,70.2
				c-1.6,0-3.2,0.3-4.6,1c-3.4,1.6-5.6,4.7-6.3,8.9c-0.3,1.8-0.2,3.7,0.2,6c0.4,2,1.2,4.1,2.2,6c2.3,3.9,5.6,6.8,9.1,8.2
				c1.7,0.6,3.3,1,4.9,1c2.2,0,4.3-0.6,6-1.9c3-2,4.7-5.4,5-9.4c0.3-3.7-0.6-7.5-2.6-10.7c-0.9-1.7-2.1-3.2-3.4-4.5
				c-1.2-1.1-2.6-2.1-4.5-3.1C37.1,70.7,35.1,70.2,33,70.2L33,70.2z M38.5,93.9c-2.6,0-5.7-2.2-7.6-5.4c-1.2-2.2-1.8-4.6-1.6-6.7
				c0.1-1,0.3-1.8,0.7-2.5c0.4-0.7,0.9-1.2,1.5-1.5c0.5-0.2,1-0.4,1.6-0.4c0.2,0,0.3,0,0.5,0c0.8,0.1,1.7,0.4,2.5,0.8
				c1.8,1,3.4,2.6,4.5,4.6c2.4,4,2.3,8.8-0.2,10.5C39.9,93.7,39.3,93.9,38.5,93.9L38.5,93.9z"/>
		</g>
		<linearGradient id="SVGID_50_" gradientUnits="userSpaceOnUse" x1="35.7929" y1="94.6765" x2="47.359" y2="94.6765">
			<stop  offset="0" style="stop-color:#F2A403"/>
			<stop  offset="1" style="stop-color:#F2CF03"/>
		</linearGradient>
		<path class="st49" d="M43,101.9c0,0-1.8-2.6-3.5-5.1c-0.9-1.3-1.7-2.6-2.3-3.6c-0.6-1-1-1.7-1-1.7c-0.8-1.3-0.4-2.9,0.9-3.7
			s2.9-0.3,3.6,0.9c0,0,0.4,0.6,1,1.6c0.6,1,1.3,2.3,2.2,3.5c1.7,2.5,3.4,5,3.4,5"/>
		<linearGradient id="SVGID_51_" gradientUnits="userSpaceOnUse" x1="25.7223" y1="76.5947" x2="35.898" y2="76.5947">
			<stop  offset="0" style="stop-color:#F2A403"/>
			<stop  offset="1" style="stop-color:#F2CF03"/>
		</linearGradient>
		<path class="st50" d="M30.5,69.5c0,0,1.2,2.6,2.4,5.2c0.3,0.6,0.6,1.3,0.9,1.9c0.3,0.6,0.6,1.1,0.9,1.6c0.5,0.9,0.8,1.6,0.8,1.6
			c0.7,1.3,0.2,2.9-1.1,3.6s-2.9,0.2-3.6-1.1c0,0-0.3-0.6-0.9-1.6c-0.3-0.5-0.6-1.1-0.9-1.7c-0.3-0.6-0.6-1.3-0.9-1.9
			c-1.3-2.7-2.5-5.3-2.5-5.3"/>
	</g>
	<g>
		<g>
			<linearGradient id="SVGID_52_" gradientUnits="userSpaceOnUse" x1="9.0439" y1="54.407" x2="34.5579" y2="54.407">
				<stop  offset="0" style="stop-color:#F2A403"/>
				<stop  offset="1" style="stop-color:#F2CF03"/>
			</linearGradient>
			<path class="st51" d="M23.6,69.9c-2.2,0-4.3-0.7-6.4-2.1c-1.7-1.1-3.1-2.5-4.3-4c-1.2-1.7-2.1-3.6-2.8-5.6
				c-0.3-1-0.6-2.1-0.8-3.1C9.1,54,9,53,9,52c0-2.1,0.3-4,1-5.8c0.3-1,0.8-1.8,1.3-2.6c0.5-0.8,1.1-1.5,1.8-2.1
				c1.3-1.2,2.9-2,4.6-2.4c0.7-0.2,1.5-0.3,2.3-0.3c0.9,0,1.9,0.1,2.8,0.4c0.8,0.2,1.6,0.5,2.4,1c0.8,0.4,1.6,0.9,2.4,1.5
				c1.4,1.1,2.6,2.4,3.6,3.9c0.5,0.7,0.9,1.5,1.3,2.2l0.1,0.1c0.4,0.8,0.8,1.7,1.1,2.6c0.6,1.8,0.9,3.6,0.9,5.4
				c0.1,2-0.1,3.7-0.6,5.2c-1.1,3.8-3.4,6.6-6.5,8C26.2,69.7,24.9,69.9,23.6,69.9C23.6,69.9,23.6,69.9,23.6,69.9z M20.1,45.2
				c-0.3,0-0.7,0-1,0.1c-1.5,0.4-2.7,1.7-3.3,3.8c-0.3,1-0.5,2.2-0.5,3.4c0,1.1,0.2,2.3,0.7,3.8c0.9,2.6,2.3,4.7,4,5.9
				c1.2,0.9,2.4,1.3,3.6,1.3c0.5,0,1-0.1,1.4-0.3c1.4-0.6,2.5-2,2.9-4c0.5-2.2,0.4-4.7-0.4-6.8c-0.4-1.3-1.1-2.4-1.6-3.2
				c-0.6-1-1.3-1.8-2.1-2.4C22.7,45.7,21.4,45.2,20.1,45.2z"/>
			<path d="M19.9,39.4c0.9,0,1.8,0.1,2.7,0.4c0.8,0.2,1.6,0.5,2.3,0.9c0.8,0.4,1.6,0.9,2.3,1.4c1.4,1,2.6,2.3,3.5,3.8
				c0.5,0.7,0.9,1.5,1.3,2.3c0.4,0.8,0.8,1.6,1.1,2.5c0.6,1.7,0.9,3.5,0.9,5.3c0.1,1.7-0.1,3.5-0.5,5.1c-1,3.5-3.2,6.3-6.3,7.7
				c-1.2,0.5-2.4,0.8-3.7,0.8c-2,0-4.1-0.7-6.1-2c-1.5-1-3-2.3-4.1-3.9c-1.1-1.6-2.1-3.5-2.7-5.5c-0.3-1-0.6-2-0.8-3
				c-0.2-1-0.2-2-0.2-3c0-2,0.3-3.9,0.9-5.6c0.3-0.9,0.7-1.8,1.2-2.5c0.5-0.8,1.1-1.4,1.7-2c1.3-1.2,2.7-1.9,4.4-2.3
				C18.5,39.5,19.2,39.4,19.9,39.4 M23.6,64c0.6,0,1.1-0.1,1.6-0.3c1.7-0.7,2.8-2.3,3.2-4.4c0.5-2.1,0.5-4.6-0.4-7
				c-0.4-1.2-1-2.3-1.7-3.3c-0.6-1-1.4-1.9-2.2-2.6c-1.3-1.1-2.7-1.7-4.1-1.7c-0.4,0-0.7,0-1.1,0.1c-1.7,0.5-3,2-3.7,4.1
				c-0.3,1.1-0.5,2.3-0.5,3.6c0,1.3,0.3,2.6,0.7,3.9c0.9,2.7,2.4,4.9,4.2,6.2C21.1,63.5,22.4,64,23.6,64 M19.9,38.4
				c-0.8,0-1.6,0.1-2.4,0.3c-1.8,0.4-3.4,1.3-4.8,2.5c-0.7,0.7-1.4,1.4-1.9,2.2c-0.5,0.8-1,1.7-1.3,2.7c-0.6,1.8-1,3.8-1,5.9
				c0,1,0,2.1,0.2,3.2c0.2,1.1,0.5,2.1,0.8,3.2c0.7,2.1,1.7,4,2.9,5.7c1.2,1.6,2.7,3,4.4,4.2c2.2,1.4,4.4,2.2,6.7,2.2
				c1.4,0,2.8-0.3,4.1-0.9c3.3-1.4,5.7-4.4,6.8-8.3c0.5-1.6,0.7-3.4,0.6-5.4c0-1.9-0.3-3.7-1-5.6c-0.3-0.9-0.7-1.8-1.1-2.6l0-0.1
				c-0.4-0.8-0.8-1.6-1.3-2.3c-1-1.5-2.3-2.9-3.7-4c-0.8-0.6-1.6-1.1-2.5-1.5c-0.9-0.5-1.7-0.8-2.5-1C21.9,38.5,20.9,38.4,19.9,38.4
				L19.9,38.4z M23.6,63c-1,0-2.2-0.4-3.3-1.2c-1.6-1.2-3-3.2-3.9-5.7c-0.5-1.4-0.7-2.6-0.7-3.6c0-1.2,0.2-2.3,0.5-3.3
				c0.6-1.9,1.6-3.1,3-3.4c0.3-0.1,0.6-0.1,0.9-0.1c1.1,0,2.4,0.5,3.5,1.5c0.7,0.6,1.4,1.4,2,2.3c0.5,0.8,1.2,1.9,1.6,3.1
				c0.7,2.1,0.8,4.4,0.3,6.5c-0.4,1.8-1.4,3.2-2.6,3.7C24.5,62.9,24.1,63,23.6,63L23.6,63z"/>
		</g>
		<linearGradient id="SVGID_53_" gradientUnits="userSpaceOnUse" x1="20.8627" y1="64.1212" x2="30.5481" y2="64.1212">
			<stop  offset="0" style="stop-color:#F2A403"/>
			<stop  offset="1" style="stop-color:#F2CF03"/>
		</linearGradient>
		<path class="st52" d="M25.7,71.7c0,0-0.3-0.7-0.8-1.8c-0.4-1.1-1-2.5-1.6-4c-0.6-1.4-1.2-2.9-1.6-4c-0.2-0.5-0.4-1-0.5-1.3
			c-0.1-0.3-0.2-0.5-0.2-0.5c-0.5-1.4,0.2-3,1.6-3.4c1.4-0.5,2.9,0.3,3.3,1.6c0,0,0.1,0.2,0.2,0.5c0.1,0.3,0.3,0.8,0.5,1.3
			c0.4,1.1,1,2.5,1.6,3.9c0.6,1.4,1.1,2.8,1.6,3.9c0.5,1,0.8,1.7,0.8,1.7"/>
		<linearGradient id="SVGID_54_" gradientUnits="userSpaceOnUse" x1="14.8249" y1="44.7015" x2="22.8738" y2="44.7015">
			<stop  offset="0" style="stop-color:#F2A403"/>
			<stop  offset="1" style="stop-color:#F2CF03"/>
		</linearGradient>
		<path class="st53" d="M20,37.5c0,0,0.1,0.7,0.4,1.7c0.2,1,0.5,2.4,0.9,3.8c0.8,2.7,1.5,5.5,1.5,5.5c0.4,1.4-0.4,2.9-1.8,3.3
			c-1.4,0.4-2.9-0.4-3.3-1.8c0,0-0.8-2.8-1.6-5.7c-0.4-1.4-0.7-2.9-0.9-3.9c-0.2-1.1-0.4-1.8-0.4-1.8"/>
	</g>
	<g>
		<g>
			<linearGradient id="SVGID_55_" gradientUnits="userSpaceOnUse" x1="2.2081" y1="20.842" x2="27.0168" y2="20.842">
				<stop  offset="0" style="stop-color:#F2A403"/>
				<stop  offset="1" style="stop-color:#F2CF03"/>
			</linearGradient>
			<path class="st54" d="M15.1,36.6c-1.1,0-2.1-0.2-3.2-0.5c-1.8-0.6-3.4-1.7-4.8-3.1c-1.3-1.3-2.4-3-3.2-4.9
				c-0.4-0.9-0.8-1.9-1.1-2.9c-0.3-1.1-0.4-2.2-0.5-3.2c-0.4-4.6,0.5-8.7,2.5-11.7C7,7,10.2,5.1,13.7,5.1c0,0,0,0,0,0
				c3.5,0,6.7,1.6,9.2,4.6c2.3,2.9,3.7,6.4,4,9.9c0.1,0.8,0.1,1.6,0.1,2.4l0,0.4c0,0.9-0.1,1.8-0.2,2.7c-0.3,1.8-0.9,3.5-1.7,5
				c-1,1.8-2.1,3.2-3.4,4.2c-1.4,1.1-2.9,1.9-4.6,2.2C16.4,36.6,15.7,36.6,15.1,36.6C15.1,36.6,15.1,36.6,15.1,36.6z M13.9,11.4
				c-1.6,0.1-3.1,1.2-4.1,3c-1,1.9-1.5,4.5-1.2,7.1c0.2,2.4,1.2,4.8,2.8,6.7c1.2,1.4,2.6,2.1,4,2.1c0.2,0,0.4,0,0.6-0.1
				c1.5-0.3,2.9-1.5,3.8-3.3c0.9-1.7,1.2-4,1-6.7c-0.2-2.4-1.1-4.6-2.5-6.3c-1.2-1.6-2.7-2.5-4.2-2.5L13.9,11.4z"/>
			<path d="M13.8,5.6c3.3,0,6.4,1.6,8.7,4.4c2.1,2.6,3.6,6,3.9,9.6c0.1,0.9,0.1,1.8,0.1,2.7c0,0.9-0.1,1.8-0.2,2.6
				c-0.3,1.7-0.9,3.4-1.7,4.9c-0.9,1.6-2,3-3.2,4.1c-1.3,1.1-2.8,1.8-4.4,2.1c-0.6,0.1-1.3,0.2-1.9,0.2c-1,0-2-0.2-3-0.5
				c-1.6-0.5-3.2-1.5-4.5-2.9c-1.3-1.3-2.3-2.9-3.1-4.7c-0.4-0.9-0.8-1.9-1.1-2.8c-0.3-1-0.4-2-0.5-3.1c-0.4-4.2,0.3-8.3,2.4-11.4
				C7.4,7.3,10.4,5.6,13.8,5.6C13.8,5.6,13.8,5.6,13.8,5.6 M15.3,30.8c0.2,0,0.5,0,0.7-0.1c1.8-0.3,3.2-1.7,4.1-3.6
				c1-1.9,1.2-4.4,1.1-7c-0.2-2.6-1.2-4.9-2.6-6.6c-1.2-1.6-2.8-2.7-4.6-2.7c-0.1,0-0.1,0-0.2,0c-1.8,0.1-3.4,1.3-4.5,3.2
				c-1,1.9-1.6,4.6-1.3,7.4c0.2,2.8,1.4,5.3,2.9,6.9C12.2,29.9,13.7,30.8,15.3,30.8 M13.8,4.6L13.8,4.6c-3.8,0-7.1,2-9.4,5.6
				c-2.1,3.1-3,7.4-2.6,12c0.1,1,0.2,2.2,0.6,3.3c0.3,1,0.7,2,1.1,3c0.9,1.9,2,3.6,3.3,5c1.4,1.4,3.1,2.6,4.9,3.2
				c1.1,0.4,2.2,0.5,3.3,0.5c0.7,0,1.4-0.1,2.1-0.2c1.8-0.4,3.4-1.1,4.8-2.3c1.3-1.1,2.4-2.5,3.5-4.3c0.9-1.6,1.5-3.4,1.8-5.2
				c0.2-0.9,0.2-1.8,0.2-2.8l0-0.4c0-0.8,0-1.6-0.1-2.4c-0.3-3.5-1.8-7.1-4.1-10.1C20.7,6.3,17.4,4.6,13.8,4.6L13.8,4.6z M15.3,29.8
				c-1.2,0-2.5-0.7-3.6-2c-1.5-1.8-2.5-4.1-2.6-6.3c-0.2-2.5,0.2-5,1.2-6.8c1-1.7,2.3-2.7,3.7-2.7c0,0,0.1,0,0.1,0
				c1.3,0,2.6,0.8,3.8,2.3c1.3,1.6,2.2,3.8,2.4,6.1c0.2,2.6-0.2,4.8-1,6.4c-0.8,1.7-2.1,2.8-3.4,3.1C15.6,29.7,15.5,29.8,15.3,29.8
				L15.3,29.8z"/>
		</g>
		<linearGradient id="SVGID_56_" gradientUnits="userSpaceOnUse" x1="12.5995" y1="30.9301" x2="19.9945" y2="30.9301">
			<stop  offset="0" style="stop-color:#F2A403"/>
			<stop  offset="1" style="stop-color:#F2CF03"/>
		</linearGradient>
		<path class="st55" d="M14.8,38.6c0,0-0.2-0.8-0.4-1.9c-0.2-1.2-0.6-2.7-0.8-4.2c-0.5-3.1-0.9-6.2-0.9-6.2c-0.2-1.5,0.8-2.8,2.2-3
			s2.8,0.8,3,2.3c0,0,0.5,3,0.9,6c0.2,1.5,0.6,3,0.8,4.1c0.2,1.1,0.4,1.8,0.4,1.8"/>
		<linearGradient id="SVGID_57_" gradientUnits="userSpaceOnUse" x1="11.0405" y1="11.0489" x2="16.7936" y2="11.0489">
			<stop  offset="0" style="stop-color:#F2A403"/>
			<stop  offset="1" style="stop-color:#F2CF03"/>
		</linearGradient>
		<path class="st56" d="M16.3,3.9c0,0,0.1,2.8,0.2,5.7c0,1.4,0.1,2.8,0.1,3.9c0.1,1.1,0.2,1.8,0.2,1.8c0.1,1.4-0.9,2.7-2.4,2.8
			s-2.7-1-2.9-2.5c0,0-0.1-0.7-0.2-1.8c0-1.1-0.1-2.6-0.1-4C11.1,6.9,11,3.9,11,3.9"/>
	</g>
</g>
<g>
	<linearGradient id="SVGID_58_" gradientUnits="userSpaceOnUse" x1="240.1287" y1="195.5591" x2="240.1287" y2="312.2402">
		<stop  offset="0" style="stop-color:#F2A403"/>
		<stop  offset="1" style="stop-color:#F2CF03"/>
	</linearGradient>
	<path class="st57" d="M240.1,312.2c-32.2,0-58.3-26.2-58.3-58.3s26.2-58.3,58.3-58.3c32.2,0,58.3,26.2,58.3,58.3
		S272.3,312.2,240.1,312.2z"/>
	<path d="M240.1,196.1c31.9,0,57.8,25.9,57.8,57.8s-25.9,57.8-57.8,57.8s-57.8-25.9-57.8-57.8S208.2,196.1,240.1,196.1 M240.1,195.1
		c-32.4,0-58.8,26.4-58.8,58.8s26.4,58.8,58.8,58.8s58.8-26.4,58.8-58.8S272.6,195.1,240.1,195.1L240.1,195.1z"/>
</g>
<g>
	<linearGradient id="SVGID_59_" gradientUnits="userSpaceOnUse" x1="240.1287" y1="302.0684" x2="240.1287" y2="205.7303">
		<stop  offset="0" style="stop-color:#F2A403"/>
		<stop  offset="1" style="stop-color:#F2CF03"/>
	</linearGradient>
	<circle class="st58" cx="240.1" cy="253.9" r="48.2"/>
</g>
<g>
	<linearGradient id="SVGID_60_" gradientUnits="userSpaceOnUse" x1="239.3425" y1="212.7505" x2="239.3425" y2="295.0479">
		<stop  offset="0" style="stop-color:#F2A403"/>
		<stop  offset="1" style="stop-color:#F2CF03"/>
	</linearGradient>
	<path class="st59" d="M237.3,295l-7.4-7.9c-1.5-2-3.6-3.9-5.9-5.9c-5-4.4-10.7-9.4-10.7-17.4c0-6.1,3.5-10.3,8.9-11
		c-5.3-4-8.4-9.5-8.4-14.9c-0.1-9.8,6.1-17.6,15.8-19.9v-5.4h10.4l4.5,6c12.9,5.6,20,19.1,20,26.3c0,5.4-2.8,9.8-6.9,11
		c5.1,5.7,7.7,11.4,7.7,17c0,10.7-6.6,17.6-17.8,18.4v3.7H237.3z"/>
	<path d="M239.8,213.3l4.4,5.9c12.2,5.3,19.8,18.4,19.8,25.9c0,5.8-3.1,10-7.3,10.7c5.1,5.5,8.1,11.2,8.1,17.3
		c0,11-7.2,17.3-17.8,17.9v3.7h-9.6l-7.2-7.7c-4.9-6.5-16.4-11.6-16.4-22.9c0-5.8,3.5-10.6,9.9-10.6c-6.8-4.6-9.4-10.7-9.4-15.3
		c-0.1-10.4,6.7-17.5,15.8-19.5v-5.3H239.8 M240.3,212.3h-0.5h-9.7h-1v1v4.5c-9.7,2.5-15.9,10.4-15.8,20.3c0,5.3,2.9,10.6,7.7,14.6
		c-5,1.1-8.2,5.4-8.2,11.3c0,8.2,5.8,13.3,10.8,17.7c2.2,1.9,4.3,3.8,5.8,5.7l0,0l0,0l7.2,7.7l0.3,0.3h0.4h9.6h1v-1v-2.8
		c11-1,17.8-8.1,17.8-18.8c0-5.5-2.4-11.2-7.3-16.8c3.9-1.5,6.5-5.8,6.5-11.2c0-7.3-7.2-21-20.2-26.7l-4.2-5.7L240.3,212.3
		L240.3,212.3z"/>
</g>
<g>
	<path d="M250.2,275.4c3.4-2.5,5.8-6.5,5.8-12.1c0-12.5-9.6-16.2-17.8-19.3v-16.8c4.1,0.3,8.1,2.9,8.1,4.3c0,1.1-0.5,1.9-1.6,2.3
		c-1.3,0.7-3.1,2-3.1,4.1c0,3.1,2.6,5.6,6.1,5.6c5.2,0,7.4-4.5,7.4-8.7c0-7.3-7.1-13.7-16.9-14.6v-5.3h-6.4v5.3
		c-7.9,0.4-15.8,7.8-15.8,16.4c0,8,3.7,12.9,15.8,19.6v15.5c-4.2-0.6-7.1-3.5-7.1-4.8c0-0.8,0.8-1.5,1.7-2.1
		c1.2-0.9,1.9-2.3,1.9-4.4c0-2.4-2.5-4.9-5.8-4.9c-4.4,0-6.6,3.5-6.6,7.9c0,5.2,2.4,12,16,15.3v5.9h6.4v-5.9
		C242.3,279,246.8,277.9,250.2,275.4z"/>
</g>
<g>
	<linearGradient id="SVGID_61_" gradientUnits="userSpaceOnUse" x1="235.6295" y1="217.061" x2="235.6295" y2="269.2398">
		<stop  offset="0" style="stop-color:#F2A403"/>
		<stop  offset="1" style="stop-color:#F2CF03"/>
	</linearGradient>
	<path class="st60" d="M236.4,221.8c4.1-0.1,8.4,1.1,11.6,3.1c3.1,2.1,5.4,5.3,5.4,9.5c0,4.9-3.4,7.2-5.8,7.2
		c-2.6,0-4.3-1.9-4.3-3.8c0-1.3,1.3-2.2,2.4-2.9c1.3-0.7,2.2-2,2.2-3.5c0-1.6-3-5.4-11.6-6v19.6c2,0.7,3.3,1.2,5.6,2.2
		c-3.9-0.8-6.9-0.5-9.3,1.1c6.5,1.6,10.4,2,14,3c2.9,3.7,5.6,10.5,2.9,17.8c0.4-7.6-3.3-11.6-12.2-14.7c-0.3-2-1.5-4-5-6.2
		c-3.8-0.8-5.6,0.4-6.5,1.9c-5.2-3.3-8-7.9-8-13.9c0-6.7,6.3-15.1,15.7-14.6v-4.8h2.8V221.8z"/>
</g>
<g>
	<path d="M232.7,248.3c-5.4-2.9-7.7-6.1-8.3-9.6c-2.1-1.6-3.1-5.4-1.8-9.9c-2.1,3.1-2.9,7.5-3.1,11.2c2.5,3.9,7.7,6.4,12.9,8.2
		H232.7z"/>
</g>
<g>
	<path d="M233.6,225.5c-5.3,0-9.3,2.8-9.3,8.3c0,4.1,1.8,7.7,9.3,10.5V225.5z"/>
</g>
<g>
	<linearGradient id="SVGID_62_" gradientUnits="userSpaceOnUse" x1="228.8872" y1="227.1257" x2="228.8872" y2="241.685">
		<stop  offset="0" style="stop-color:#F2A403"/>
		<stop  offset="1" style="stop-color:#F2CF03"/>
	</linearGradient>
	<path class="st61" d="M226,233.8c0-4.6,3.8-6.6,5.9-6.6v14.6C228.3,240,226,237.6,226,233.8z"/>
</g>
<g>
	<linearGradient id="SVGID_63_" gradientUnits="userSpaceOnUse" x1="241.3945" y1="258.4916" x2="241.3945" y2="271.7808">
		<stop  offset="0" style="stop-color:#F2A403"/>
		<stop  offset="1" style="stop-color:#F2CF03"/>
	</linearGradient>
	<path class="st62" d="M244.6,266c0,4.2-3.2,5.8-6.4,5.8v-13.3C242.4,260.6,244.6,263.3,244.6,266z"/>
</g>
</svg>
