<?xml version="1.0" encoding="utf-8"?>
<!-- Generator: Adobe Illustrator 20.1.0, SVG Export Plug-In . SVG Version: 6.00 Build 0)  -->
<svg version="1.1"
	 id="svg2" inkscape:version="0.41+cvs" sodipodi:docbase="/home/nicu/Desktop" sodipodi:docname="adventurer_hat.svg" sodipodi:version="0.32" xmlns:cc="http://web.resource.org/cc/" xmlns:dc="http://purl.org/dc/elements/1.1/" xmlns:inkscape="http://www.inkscape.org/namespaces/inkscape" xmlns:rdf="http://www.w3.org/1999/02/22-rdf-syntax-ns#" xmlns:sodipodi="http://inkscape.sourceforge.net/DTD/sodipodi-0.dtd" xmlns:svg="http://www.w3.org/2000/svg"
	 xmlns="http://www.w3.org/2000/svg" xmlns:xlink="http://www.w3.org/1999/xlink" x="0px" y="0px" viewBox="0 0 128 68"
	 style="enable-background:new 0 0 128 68;" xml:space="preserve">
<style type="text/css">
	.st0{fill:#A3A3A3;}
	.st1{opacity:0.21;fill:#FFFFFF;}
	.st2{opacity:0.2;}
	.st3{filter:url(#Adobe_OpacityMaskFilter);}
	.st4{opacity:0.11;mask:url(#crown_x5F_shadow_x5F_2_1_);}
</style>
<path id="hat" class="st0" d="M122.5,52.1c-1-1.3-12.8-2.8-27.2-3.9C94,40.1,93,22.2,90.7,17.2C85.2,5.4,72.4,3.5,62.7,3.9
	C57,4.2,52.3,5.3,51.1,5.7c-1.2-0.7-2.9-2-7.3-0.7C33.1,7.8,32.9,35.1,31,46.8c-0.1,0.2-0.1,0.5-0.2,0.7c-8.9,3.9-24.1,3.4-28.3,5.4
	c0,0,0,0,0.1,0C2,53,1.7,53.2,1.6,53.4c28.9,20.5,97.2,4.7,121.2-0.9C122.8,52.4,122.7,52.2,122.5,52.1z"/>
<path id="brim_x5F_hi" class="st1" d="M122.5,52.1c0,0.1,0.1,0.1,0.1,0.2C99.6,57,34,70.1,2.5,52.8C2,53,1.7,53.2,1.6,53.4
	c28.9,20.5,97.2,4.7,121.2-0.9C122.8,52.4,122.7,52.2,122.5,52.1z"/>
<path id="ribbon" sodipodi:nodetypes="cccccc" d="M31.4,35.5c19.5-13.9,47.8-0.5,63,5.3c1.1,1.1,3.9,8.3,3.2,8.1
	c-13.6-2.2-54.4-3.9-67.5-1.2c-0.6,0.3-1.2-5.3,0.4-6.5C32.3,39.7,30.3,36.9,31.4,35.5z"/>
<path id="crown_x5F_shadow_x5F_3" sodipodi:nodetypes="ccc" class="st2" d="M58.3,16.9c-2.2-20,25.9-12,25.9,6.3
	C80.4,12.7,63,4.4,58.3,16.9z"/>
<path id="crown_x5F_shadow_x5F_1" sodipodi:nodetypes="cccc" class="st2" d="M45.7,6.7c-4.6,0.3-9.8,13.8-8.4,13.4
	c2.4-7.6,9.7-14.5,10.1-4.6C48.3,12.8,48.9,8.2,45.7,6.7z"/>
<defs>
	<filter id="Adobe_OpacityMaskFilter" filterUnits="userSpaceOnUse" x="39.8" y="4.5" width="22" height="40.7">
		<feFlood  style="flood-color:white;flood-opacity:1" result="back"/>
		<feBlend  in="SourceGraphic" in2="back" mode="normal"/>
	</filter>
</defs>
<mask maskUnits="userSpaceOnUse" x="39.8" y="4.5" width="22" height="40.7" id="crown_x5F_shadow_x5F_2_1_">
	<g class="st3">
	</g>
</mask>
<path id="crown_x5F_shadow_x5F_2" sodipodi:nodetypes="ccccc" class="st4" d="M45.5,4.8c9.3,7.6-1,28.9-4.8,33.5
	c-6.8,9.5,22.8,8.8,20.9,0.8C52,34.7,51.4,21.9,51.7,6.3C50.2,4.6,46.6,4.1,45.5,4.8z"/>
</svg>
