<?xml version="1.0" encoding="utf-8"?>
<!-- Generator: Adobe Illustrator 20.1.0, SVG Export Plug-In . SVG Version: 6.00 Build 0)  -->
<svg version="1.1" id="Layer_1" xmlns="http://www.w3.org/2000/svg" xmlns:xlink="http://www.w3.org/1999/xlink" x="0px" y="0px"
	 viewBox="0 0 425 185" style="enable-background:new 0 0 425 185;" xml:space="preserve">
<style type="text/css">
	.st0{stroke:#000000;fill:#000000;}
	.st1{opacity:0.8;stroke:#000000;enable-background:new    ;}
</style>
<g>
	<path id="frame" class="st0" d="M319.2,29.5c-29.3,0.2-57.5,9.3-86.2,13c-12,1.5-24.3,1.9-36.3,0.5c-16-1.9-31.4-6.9-47.4-9.1
		c-14.3-2-28.7-4.1-43-4.2C81.2,29.6,57,37.4,32.4,41.6c0,7.2-1.5,16.4,2.2,21.5c3.8,5.2,10.2,10,11.8,17
		c3.9,16.8,9.5,33.2,16.7,48.9c3.5,7.6,10,13,17.3,16.7c17.6,8.8,38.5,10.1,57.8,7.4c27.5-4,42.4-24.6,53.8-48.2
		c4.3-9.6,4.7-20.7,10.4-29.4c3.3-5.2,11.1-3,16.6-3c8.2,0,10.2,9.2,11.9,15.3c6.1,21.7,16.2,44.7,36.3,56
		c30.1,17,77.4,13.8,97-16.8c7.6-12,9.7-26.5,13.6-40.1c2.3-8.3,4.4-18.1,12.7-22.6c3.3-1.8,1-9.1,1.5-13.4c0.5-4.6,1.6-8.7-5-9.6
		c-11.5-1.6-22.6-6.4-34.4-8C341.5,31.6,330.5,29.4,319.2,29.5z M125.7,37.2c8.3-0.1,16.6,0.6,24.6,2.3c48.1,10.2,49.1,30,29.3,71
		c-16.1,33.4-49.6,41.8-83.2,33.7c-15.5-3.7-26.1-14.5-31.1-29.4C60,99.1,56,82.5,56.9,66c1.2-22,26.1-25.1,44-27.2
		C109.1,38,117.4,37.2,125.7,37.2z M301.4,37.2c8.3,0.1,16.6,0.8,24.8,1.7c17.9,2,42.8,5.1,44,27.2c0.9,16.5-3.1,33.1-8.4,48.8
		c-5,14.8-15.6,25.7-31.1,29.4c-33.7,8-67.1-0.4-83.2-33.7c-19.8-41-18.8-60.8,29.3-71C284.8,37.7,293.1,37.1,301.4,37.2z"/>
	<path id="lens_x5F_2" class="st1" d="M100.9,38.9c16.4-1.8,33.3-2.8,49.5,0.6c48.1,10.2,49.1,30,29.3,71
		c-16.1,33.4-49.5,41.8-83.2,33.8c-15.5-3.7-26.1-14.6-31.2-29.4C60,99.1,56,82.5,56.9,66C58.1,44,83,40.9,100.9,38.9L100.9,38.9z"
		/>
	<path id="lens_x5F_1" class="st1" d="M326.2,38.9c-16.4-1.8-33.3-2.8-49.5,0.6c-48.1,10.2-49.1,30-29.3,71
		c16.1,33.4,49.5,41.8,83.2,33.8c15.5-3.7,26.1-14.6,31.2-29.4c5.3-15.7,9.3-32.3,8.4-48.8C369,44,344.1,40.9,326.2,38.9L326.2,38.9
		z"/>
</g>
</svg>
