<?xml version="1.0" encoding="utf-8"?>
<!-- Generator: Adobe Illustrator 20.1.0, SVG Export Plug-In . SVG Version: 6.00 Build 0)  -->
<svg version="1.1" id="tiara_1_" xmlns="http://www.w3.org/2000/svg" xmlns:xlink="http://www.w3.org/1999/xlink" x="0px" y="0px"
	 viewBox="0 0 348 168" style="enable-background:new 0 0 348 168;" xml:space="preserve">
<style type="text/css">
	.st0{fill:#D942A5;stroke:#000000;stroke-width:2;stroke-miterlimit:10;}
</style>
<path id="tiara" class="st0" d="M271,59.6c8.9-3.3,10.1-2.4,10.4,7.2c4.6-0.9,9.3-2.1,13.5,0.5c4.3,2.7,5,7.6,5.5,12
	c2.5-0.1,5.1-0.8,7.2-0.2c2.5,0.8,2.2,3.8,2.3,6.5c4.8-1.2,8.3,0.6,10.7,4.3c2.5,3.7,2.4,7.8,0.1,12.4c3.9,4.6,3.9,4.5,2.4,13.7
	c0.6-0.1,1.2-0.2,1.8-0.2c0.9,0,1.8-0.2,2.6,0c1.7,0.3,2.4,1.6,2.6,3.5c0.2,1.8-0.9,3-2.2,3.8c-4.6,2.6-9.2,5.5-14,7.5
	c-14.5,6.1-29.2,9.9-44,13.1c-35.5,7.6-71.4,9.6-107.2,8.8c-26-0.5-52.1-2.8-77.9-7.1c-16-2.7-32-6.7-47.7-12.8
	c-5.5-2.1-10.8-4.9-16.2-7.5c-1-0.5-1.9-1.3-2.9-1.9c-1.4-1-2.5-2.2-2.2-4c0.2-1.8,1-3.1,2.7-3.3c1.3-0.1,2.8,0.1,4.4,0.1
	c-1.5-5.3-2.2-10.4,2.4-13.3c-4.1-10.7,0.8-18,10.8-17c0.2-2.4-0.2-5.6,2.3-6.5c2-0.7,4.6,0,7.2,0.1c0.4-4.3,1.1-9.2,5.4-12
	c4.2-2.7,8.9-1.5,13.7-0.6c0-3.1-1.1-6.7,2-8.4c2.7-1.5,5.5,0.2,8,1.1c2.2-3.4,4.1-6.8,6.5-9.8c7.2-9,16.8-12.1,27.5-10.6
	c5.2,0.7,10.3,2.6,15.5,4c0.9,0.2,1.6,0.5,2.3-0.7c3.5-5.5,7-5.8,11.4-1c0.4,0.5,0.9,0.9,1.1,1.2c5.4-6,10.3-12.3,15.9-17.8
	c5.3-5.2,11.2-9.6,16.7-14.4c1-0.9,1.8-0.7,2.8,0c10.9,7.4,20.2,17.2,28.7,27.8c1.2,1.5,2.3,2.9,3.6,4.6c0.9-0.9,1.7-1.7,2.6-2.5
	c3.8-3.4,7.1-2.9,9.9,1.5c1,1.6,1.8,1.6,3.2,1.1c7.2-2.8,14.5-4.6,22.2-4c11.3,1,19.3,7.3,24.8,17.7C270,57.5,270.5,58.5,271,59.6z
	 M103.5,76.2c1.4,0.9,2.6,1.9,4,2.4c5.4,2.1,10.9-0.3,13.4-5.7c2.8-6,1.6-15.6-2.4-19.6c-7.1-7.2-23.8-8.4-31.4,4.3
	c-5.7,9.5-6.2,19.7-2.6,30.6c5.5,17.2,16.3,29.7,30.7,38.1c4.3,2.5,8.8,3.4,13.5,2.4c4.1-0.8,7.4-3,9.2-7.5c1.7-4.3,1-7.8-2.1-11
	c-4.2-4.2-12.1-5.8-16.4-3.3c0.2,0.6,0.4,1.1,0.5,1.7c0.9,3.9-0.7,7.8-3.8,9.3c-3,1.5-6.7,0.3-8.8-2.9c-2.2-3.3-2.1-7.5,0.1-10.4
	c6.5-8.6,18.7-11.4,28.2-6.1c0.5,0.3,1,0.5,1.5,0.8c-4.9-7.8-6.2-16.6-7.3-25.5c-0.3,0.5-0.4,1-0.5,1.4c-1.2,5.4-3.8,9.5-8.3,11.5
	c-8.9,3.9-17.4,1.9-25.1-5c-4.1-3.7-6-8.5-5.9-14.3c0.1-4.9,3.2-8.6,7.6-9c4-0.4,7.9,2.6,9.1,7.2C107.6,69.7,106.4,73.1,103.5,76.2z
	 M226.9,106.8c-3.9-2-9.6-1.3-14.3,1.7c-5.8,3.8-6.8,10-2.6,15.6c0.8,1.1,1.9,2.1,3,2.8c5,3.1,10.5,2.9,15.8,0.4
	c11.3-5.4,20.5-14.3,27.2-26.1c5-8.8,8.4-18,7.8-28.2c-0.7-12.7-8.4-27.4-25.7-24.7c-11,1.8-14.6,7.7-14.3,18.4
	c0.3,9.3,7.3,14.8,14.9,11.9c1.3-0.5,2.5-1.5,4.1-2.6c-0.8-0.6-1.1-0.8-1.4-1.1c-2.6-3.2-3-7.9-0.9-11.7c2-3.8,6-5.6,9.7-4.6
	c3.7,1.1,6.1,4.6,6.2,9.1c0.1,5.5-1.8,10.1-5.6,13.8c-5.8,5.6-12.5,7.8-19.8,6.9c-7.5-0.9-12.4-5.8-13.9-13.3
	c-0.1-0.5-0.2-0.9-0.3-1.3c-1.1,9-2.6,17.8-8,25.8c0.8-0.4,1.2-0.5,1.5-0.7c9.9-5.5,21.4-3.1,28.4,5.6c2,2.5,2.5,5.4,1.2,8.7
	c-1.2,3.2-3.4,5.1-6.4,5.4C228.1,119,225,113.6,226.9,106.8z M163.5,117.6c-3.8-5.4-7.4-11-10-17.4c-4.7-12.1-4.5-23.8,0.7-35.4
	c3-6.6,7-12.3,11.6-17.5c1.1-1.3,2.2-2.5,3.4-3.9c-4-2.2-6.1-5.5-5.1-11.1c-6.8,5.1-12.9,10.5-17.7,17.6
	c-7.5,11.2-8.9,23.2-4.1,36.4C147,98.9,154.9,108.6,163.5,117.6z M176.9,43.5c0.5,0.6,1.1,1.1,1.6,1.8c3.2,4,6.6,7.9,9.4,12.2
	c5,7.5,8.1,16,8,25.8c0,8.6-2.5,16.4-6.5,23.6c-2.2,3.9-4.7,7.4-7.4,11.7c9.1-9.9,17.4-19.9,22-33c3.2-9.1,3.6-18.2,0.1-27.1
	c-4.6-11.7-12.9-19.1-22-26C182.4,38.5,181.8,39.8,176.9,43.5z M49.3,89c0,0.7,0,1.3,0.1,2c0.7,8.7,2,10.4,10.1,12.5
	c3.9,1,7.1-0.2,8.8-3.9c0.9-1.9,1.5-4,1.7-6.2c0.7-9.8-6.6-17.9-15-16.7c-1.1,0.1-2.2,1-2.9,1.9C50,81.6,49.5,85.2,49.3,89z
	 M296.8,89.4c-0.1-4.1-0.8-7.6-2.7-10.8c-0.8-1.3-1.8-1.9-3.3-2c-7.6-0.5-14,5.6-14.6,14.4c-0.8,10.6,5.2,15.5,14.2,11.2
	c6-2.8,4.6-1.3,6-8.1C296.6,92.4,296.6,90.8,296.8,89.4z M177.4,138.8c11.7-0.1,23.1-0.5,34.9-1.2c-8.5-5.1-12.9-13.3-12.9-24.4
	C192.1,121.7,184.9,130.2,177.4,138.8z M134,137.6c11.7,0.7,23.2,1.1,34.7,1.1c-7.4-8.5-14.6-17-21.9-25.5
	C146.7,124.4,142.3,132.5,134,137.6z M254.7,116.7c-3,3.6-5.8,7.4-9,10.6c-3.1,3.2-6.7,5.8-10.2,8.8c12.9,0,25.7-1.7,39.1-5.4
	C267.3,126.6,260,123.1,254.7,116.7z M110.7,135.8c-7.6-4.9-13.8-11.5-19-19.5c-5.6,6.8-12.9,10.2-20.1,14.3
	C84.9,134.3,97.7,136,110.7,135.8z M258.7,110.7c4.9,2.5,9.5,5,14.3,7.1c1.8,0.7,3.9,0.9,5.9,0.7c2.6-0.2,4.1-1.9,4.7-5
	c-1,0-1.9,0-2.9,0.1c-4.9,0.2-8.4-2.6-9.4-7.5c-0.5-2.3-0.1-4.9-2.3-6.4c-0.9-0.6-0.9-2.7-1.2-4.2
	C264.8,100.4,261.9,105.2,258.7,110.7z M87.2,110.3c-3.1-5.2-5.9-10-8.7-14.7c-0.5,1.5-0.6,3.7-1.6,4.5c-1.5,1.2-1.6,2.7-1.8,4.4
	c-0.7,6.1-4.2,9.3-9.7,9.1c-1,0-1.9,0-2.9-0.1c1,3.8,3.1,5.4,6.6,5.1C75.9,118,81.4,114.1,87.2,110.3z M166.9,104.7
	c-6.6-12.6-4.1-23.7,4-34.1c-4.4-1-5.3-4.7-5.4-9.3C156.3,77.3,156.5,92.9,166.9,104.7z M178.8,105.2c11.2-12.1,10.7-29.8,1.8-43.5
	c-0.5,6-0.9,6.6-5.3,9.1C183.2,81,185.9,92.1,178.8,105.2z M42.8,122.5c-0.4-8.9-2.4-16.6-7.6-23.7c-3.2,5.7-4,11.8-2.7,18.6
	c0.1,0.6,0.6,1.5,1.1,1.7C36.5,120.3,39.5,121.3,42.8,122.5z M303.3,121.9c3.3-0.2,6.4-1.2,9.3-2.9c0.4-0.2,0.8-0.9,0.9-1.3
	c1.4-7,0.5-13.2-2.7-18.9C305.7,105.9,303.6,113.6,303.3,121.9z M52.6,125.9c-0.1-3-1.1-5.6-3.4-7.8c0,1.5,0,2.8,0,4
	C49.3,124.9,49.8,125.5,52.6,125.9z M296.6,118.4c-2,2-3,4.7-3.1,7.5C297.1,125.2,297.3,124.7,296.6,118.4z"/>
</svg>
