<?xml version="1.0" encoding="utf-8"?>
<!-- Generator: Adobe Illustrator 20.1.0, SVG Export Plug-In . SVG Version: 6.00 Build 0)  -->
<svg version="1.1"
	 id="tophat" inkscape:version="0.48.2 r9819" sodipodi:docname="New document 9" xmlns:cc="http://creativecommons.org/ns#" xmlns:dc="http://purl.org/dc/elements/1.1/" xmlns:inkscape="http://www.inkscape.org/namespaces/inkscape" xmlns:rdf="http://www.w3.org/1999/02/22-rdf-syntax-ns#" xmlns:sodipodi="http://sodipodi.sourceforge.net/DTD/sodipodi-0.dtd" xmlns:svg="http://www.w3.org/2000/svg"
	 xmlns="http://www.w3.org/2000/svg" xmlns:xlink="http://www.w3.org/1999/xlink" x="0px" y="0px" viewBox="0 0 500 438"
	 style="enable-background:new 0 0 500 438;" xml:space="preserve">
<style type="text/css">
	.st0{fill:#7F219E;stroke:#000000;}
	.st1{opacity:0.2;fill:url(#ha_x5F_hi_1_);enable-background:new    ;}
	.st2{opacity:0.32;enable-background:new    ;}
	.st3{opacity:0.67;enable-background:new    ;}
</style>
<path id="hat_1_" class="st0" d="M469.7,268.3c-3.1-29-35.1-39.8-65.1-24.2c-3.4,0.7-6.7,1.3-10,1.7
	c-19.5-64.4-20.6-139.5-21.8-213.8c-105.1-8.2-220.2,8.4-323.6,44.3c27.3,75.1,48.2,148.7,46.2,217l0,0
	C-27.8,291,4.9,436.7,140.3,408.3c7.8-1.5,15.5-3.6,23.2-6c62-16,103.1-33.1,134.9-50.9C420.7,361,476.5,324.2,469.7,268.3z"/>
<g>
	<path id="ribbon" inkscape:connector-curvature="0" sodipodi:nodetypes="ccccc" d="M94.4,313.9c-0.7,19-1.5,40-3.9,51.7
		c68.9,9.3,114.6-7.7,177.9-20c0,0,24.8-15.9,49.4-35.5l47.9-38.3C273.6,288.5,201.1,314.9,94.4,313.9z"/>
	
		<linearGradient id="ha_x5F_hi_1_" gradientUnits="userSpaceOnUse" x1="120.8215" y1="-126.7562" x2="156.0299" y2="-134.8539" gradientTransform="matrix(3.8607 0.1953 -0.1953 3.8607 -359.1786 675.5065)">
		<stop  offset="0" style="stop-color:#FFFFFF;stop-opacity:0"/>
		<stop  offset="0.4875" style="stop-color:#FFFFFF"/>
		<stop  offset="1" style="stop-color:#FFFFFF;stop-opacity:0"/>
	</linearGradient>
	<path id="ha_x5F_hi" inkscape:connector-curvature="0" sodipodi:nodetypes="ccccc" class="st1" d="M134.3,360.4
		c18.5,6.4,83.3-3.1,175.7-22c-11.9-83.9,37.7-77.3-35.5-301.3C199.1,37.4,148.2,45,99.9,54.4L134.3,360.4z"/>
	<path id="brim_x5F_shadow" inkscape:connector-curvature="0" sodipodi:nodetypes="cssccc" class="st2" d="M161.8,402.7
		c38.5-12.2,85-41.2,133.2-75.4c34.1-24.2,66.7-54.5,101.9-78.5c31.9-21.9,69.3-11.8,72.7,19.6c-21.4-9.4-41.4-8.5-59.4,2.6
		C341.1,318.9,313.4,363.8,161.8,402.7L161.8,402.7z"/>
	<path id="hat_x5F_shadow" class="st3" d="M469.7,268.2c-21.4-9.4-41.4-8.5-59.4,2.6c-40.4,28.1-66.7,55.1-111.9,80.5l0,0
		C420.7,360.9,476.5,324.2,469.7,268.2z"/>
</g>
</svg>
